<svg width="96" height="96" viewBox="0 0 96 96" fill="none" xmlns="http://www.w3.org/2000/svg">
<rect x="6.5" y="6.5" width="83" height="83" stroke="#8F8F8F"/>
<g clip-path="url(#clip0_492_3868)">
<path d="M42.9609 50.0002C45.1709 50.0002 46.9609 48.2102 46.9609 46.0002C46.9609 43.7902 45.1709 42.0002 42.9609 42.0002C40.7509 42.0002 38.9609 43.7902 38.9609 46.0002C38.9609 48.2102 40.7509 50.0002 42.9609 50.0002ZM42.9609 43.0002C44.6109 43.0002 45.9609 44.3502 45.9609 46.0002C45.9609 47.6502 44.6109 49.0002 42.9609 49.0002C41.3109 49.0002 39.9609 47.6502 39.9609 46.0002C39.9609 44.3502 41.3109 43.0002 42.9609 43.0002ZM49.9609 59.0002V59.5002C49.9609 59.7802 49.7409 60.0002 49.4609 60.0002C49.1809 60.0002 48.9609 59.7802 48.9609 59.5002V59.0002C48.9609 55.6902 46.2709 53.0002 42.9609 53.0002C39.6509 53.0002 36.9609 55.6902 36.9609 59.0002V59.5002C36.9609 59.7802 36.7409 60.0002 36.4609 60.0002C36.1809 60.0002 35.9609 59.7802 35.9609 59.5002V59.0002C35.9609 55.1402 39.1009 52.0002 42.9609 52.0002C46.8209 52.0002 49.9609 55.1402 49.9609 59.0002ZM60.0009 40.5002L59.9609 49.5002C59.9609 51.9802 57.9409 54.0002 55.4609 54.0002H50.4609C50.1809 54.0002 49.9609 53.7802 49.9609 53.5002C49.9609 53.2202 50.1809 53.0002 50.4609 53.0002H55.4609C57.3909 53.0002 58.9609 51.4302 58.9609 49.5002L59.0009 40.5002C59.0009 38.5702 57.4309 37.0002 55.5009 37.0002H45.4609C44.6855 36.9997 43.9318 37.2567 43.3182 37.7309C42.7046 38.2051 42.2659 38.8697 42.0709 39.6202C42.0009 39.8902 41.7309 40.0502 41.4609 39.9802C41.3971 39.9642 41.337 39.9356 41.2842 39.8961C41.2315 39.8567 41.1871 39.8071 41.1536 39.7504C41.1201 39.6937 41.0982 39.6308 41.0892 39.5656C41.0801 39.5003 41.0841 39.4339 41.1009 39.3702C41.6109 37.3802 43.4009 35.9902 45.4609 35.9902H55.5009C57.9809 35.9902 60.0009 38.0102 60.0009 40.4902V40.5002ZM50.3609 46.9002L55.2609 42.0002H51.4709C51.1909 42.0002 50.9709 41.7802 50.9709 41.5002C50.9709 41.2202 51.1909 41.0002 51.4709 41.0002H55.4709C56.3009 41.0002 56.9709 41.6702 56.9709 42.5002V46.5002C56.9709 46.7802 56.7509 47.0002 56.4709 47.0002C56.1909 47.0002 55.9709 46.7802 55.9709 46.5002V42.7102L51.0709 47.6102C50.7809 47.9002 50.3909 48.0502 50.0109 48.0502C49.6309 48.0502 49.2409 47.9002 48.9509 47.6102L48.6609 47.3202C48.4609 47.1202 48.4609 46.8102 48.6609 46.6102C48.8609 46.4102 49.1709 46.4102 49.3709 46.6102L49.6609 46.9002C49.8609 47.0902 50.1709 47.0902 50.3709 46.9002H50.3609Z" fill="#1C1C1C"/>
</g>
<defs>
<clipPath id="clip0_492_3868">
<rect width="24" height="24" fill="white" transform="translate(36 36)"/>
</clipPath>
</defs>
</svg>
