<svg width="83" height="96" viewBox="0 0 83 96" fill="none" xmlns="http://www.w3.org/2000/svg">
<path d="M82.5 24.2871V71.7119L41.5 95.4219L0.5 71.7119V24.2871L41.5 0.577148L82.5 24.2871Z" stroke="#8F8F8F"/>
<g clip-path="url(#clip0_492_3822)">
<path d="M40.7377 60C40.4927 60 40.2437 59.946 40.0027 59.835C39.6269 59.6681 39.3251 59.3697 39.1538 58.9959C38.9826 58.6221 38.9537 58.1986 39.0727 57.805L40.8277 52H35.5017C34.7027 52 33.9707 51.632 33.4947 50.99C33.0187 50.348 32.8777 49.541 33.1087 48.776L36.1307 37.788C36.2827 37.2708 36.5985 36.8168 37.0305 36.4944C37.4626 36.172 37.9876 35.9985 38.5267 36H42.8997C43.2387 36.0002 43.5726 36.0825 43.873 36.2398C44.1733 36.3971 44.431 36.6247 44.6242 36.9033C44.8174 37.1819 44.9403 37.5031 44.9823 37.8395C45.0244 38.1759 44.9844 38.5174 44.8657 38.835L42.7057 45H46.5007C47.4427 45 48.2687 45.497 48.7097 46.33C48.9265 46.7301 49.0282 47.1824 49.0035 47.6368C48.9788 48.0912 48.8286 48.5298 48.5697 48.904L42.1597 59.216C41.8207 59.725 41.2917 60 40.7377 60ZM38.5277 37C37.8617 37 37.2847 37.428 37.0917 38.066L34.0697 49.054C33.9277 49.525 34.0117 50.009 34.2977 50.394C34.5837 50.779 35.0227 51 35.5027 51H41.5017C41.5796 51.0001 41.6564 51.0185 41.726 51.0535C41.7956 51.0886 41.856 51.1395 41.9024 51.202C41.9488 51.2646 41.98 51.3371 41.9934 51.4138C42.0068 51.4906 42.0022 51.5694 41.9797 51.644L40.0327 58.086C39.9107 58.514 40.1537 58.802 40.4237 58.926C40.6927 59.05 41.0697 59.05 41.3197 58.673L47.7317 48.358C48.0597 47.874 48.0917 47.297 47.8267 46.797C47.5617 46.297 47.0667 45.999 46.5007 45.999H42.0007C41.9208 45.9988 41.8422 45.9796 41.7712 45.9428C41.7003 45.9061 41.6392 45.8529 41.593 45.7877C41.5468 45.7225 41.5169 45.6473 41.5057 45.5682C41.4945 45.4891 41.5024 45.4084 41.5287 45.333L43.9257 38.493C43.9911 38.3259 44.0141 38.1452 43.9926 37.967C43.9711 37.7889 43.9059 37.6188 43.8027 37.472C43.7025 37.3252 43.5678 37.2052 43.4103 37.1227C43.2528 37.0403 43.0775 36.9978 42.8997 36.999H38.5267L38.5277 37Z" fill="#1C1C1C"/>
</g>
<defs>
<clipPath id="clip0_492_3822">
<rect width="24" height="24" fill="white" transform="translate(29 36)"/>
</clipPath>
</defs>
</svg>
