<svg width="96" height="96" viewBox="0 0 96 96" fill="none" xmlns="http://www.w3.org/2000/svg">
<circle cx="48" cy="48" r="47.5" stroke="#8F8F8F"/>
<g clip-path="url(#clip0_492_3859)">
<path d="M54.0001 44C56.2061 44 58.0001 42.206 58.0001 40C58.0001 37.794 56.2061 36 54.0001 36C51.7941 36 50.0001 37.794 50.0001 40C50.0001 42.206 51.7941 44 54.0001 44ZM54.0001 37C55.6541 37 57.0001 38.346 57.0001 40C57.0001 41.654 55.6541 43 54.0001 43C52.3461 43 51.0001 41.654 51.0001 40C51.0001 38.346 52.3461 37 54.0001 37ZM44.0001 47C44.0001 49.206 45.7941 51 48.0001 51C50.2061 51 52.0001 49.206 52.0001 47C52.0001 44.794 50.2061 43 48.0001 43C45.7941 43 44.0001 44.794 44.0001 47ZM48.0001 44C49.6541 44 51.0001 45.346 51.0001 47C51.0001 48.654 49.6541 50 48.0001 50C46.3461 50 45.0001 48.654 45.0001 47C45.0001 45.346 46.3461 44 48.0001 44ZM42.0001 44C44.2061 44 46.0001 42.206 46.0001 40C46.0001 37.794 44.2061 36 42.0001 36C39.7941 36 38.0001 37.794 38.0001 40C38.0001 42.206 39.7941 44 42.0001 44ZM42.0001 37C43.6541 37 45.0001 38.346 45.0001 40C45.0001 41.654 43.6541 43 42.0001 43C40.3461 43 39.0001 41.654 39.0001 40C39.0001 38.346 40.3461 37 42.0001 37ZM59.5001 59H54.0001C54.0001 55.691 51.3091 53 48.0001 53C44.6911 53 42.0001 55.691 42.0001 59H36.5001C36.3675 59 36.2403 59.0527 36.1465 59.1464C36.0528 59.2402 36.0001 59.3674 36.0001 59.5C36.0001 59.6326 36.0528 59.7598 36.1465 59.8536C36.2403 59.9473 36.3675 60 36.5001 60H59.5001C59.6327 60 59.7599 59.9473 59.8536 59.8536C59.9474 59.7598 60.0001 59.6326 60.0001 59.5C60.0001 59.3674 59.9474 59.2402 59.8536 59.1464C59.7599 59.0527 59.6327 59 59.5001 59ZM48.0001 54C50.7571 54 53.0001 56.243 53.0001 59H43.0001C43.0001 56.243 45.2431 54 48.0001 54ZM60.0001 52V52.5C60.0001 52.6326 59.9474 52.7598 59.8536 52.8536C59.7599 52.9473 59.6327 53 59.5001 53C59.3675 53 59.2403 52.9473 59.1465 52.8536C59.0528 52.7598 59.0001 52.6326 59.0001 52.5V52C59.0067 50.7508 58.5427 49.545 57.7005 48.6223C56.8584 47.6997 55.6997 47.128 54.4551 47.021C54.323 47.0091 54.2011 46.9452 54.1161 46.8433C54.0312 46.7415 53.9901 46.6101 54.0021 46.478C54.014 46.3459 54.0779 46.224 54.1798 46.139C54.2816 46.0541 54.413 46.0131 54.5451 46.025C56.0388 46.1536 57.4294 46.8399 58.4402 47.9472C59.451 49.0545 60.0079 50.5007 60.0001 52ZM36.0001 52.5V52C35.9925 50.5008 36.5495 49.0537 37.5602 47.9464C38.571 46.8392 39.9614 46.1529 41.4551 46.024C41.5872 46.0121 41.7186 46.0531 41.8204 46.138C41.9222 46.223 41.9861 46.3449 41.9981 46.477C42.01 46.6091 41.969 46.7405 41.884 46.8423C41.7991 46.9442 41.6772 47.0081 41.5451 47.02C40.3005 47.127 39.1418 47.6987 38.2996 48.6213C37.4574 49.544 36.9935 50.7498 37.0001 51.999V52.499C37.0001 52.6316 36.9474 52.7588 36.8536 52.8526C36.7599 52.9463 36.6327 52.999 36.5001 52.999C36.3675 52.999 36.2403 52.9463 36.1465 52.8526C36.0528 52.7588 36.0001 52.6326 36.0001 52.5Z" fill="#1C1C1C"/>
</g>
<defs>
<clipPath id="clip0_492_3859">
<rect width="24" height="24" fill="white" transform="translate(36 36)"/>
</clipPath>
</defs>
</svg>
