<svg width="83" height="96" viewBox="0 0 83 96" fill="none" xmlns="http://www.w3.org/2000/svg">
<path d="M82.5 24.2871V71.7119L41.5 95.4219L0.5 71.7119V24.2871L41.5 0.577148L82.5 24.2871Z" stroke="#8F8F8F"/>
<g clip-path="url(#clip0_492_3887)">
<path d="M31.805 54.562C31.2583 54.2591 30.8026 53.8155 30.4852 53.277C30.1678 52.7386 30.0002 52.125 30 51.5V44H49V52.5C49 52.6326 49.0527 52.7598 49.1464 52.8536C49.2402 52.9473 49.3674 53 49.5 53C49.6326 53 49.7598 52.9473 49.8536 52.8536C49.9473 52.7598 50 52.6326 50 52.5V42.5C50 40.019 47.981 38 45.5 38H45V36.5C45 36.3674 44.9473 36.2402 44.8536 36.1464C44.7598 36.0527 44.6326 36 44.5 36C44.3674 36 44.2402 36.0527 44.1464 36.1464C44.0527 36.2402 44 36.3674 44 36.5V38H35V36.5C35 36.3674 34.9473 36.2402 34.8536 36.1464C34.7598 36.0527 34.6326 36 34.5 36C34.3674 36 34.2402 36.0527 34.1464 36.1464C34.0527 36.2402 34 36.3674 34 36.5V38H33.5C32.3069 38.0013 31.1631 38.4759 30.3195 39.3195C29.4759 40.1631 29.0013 41.3069 29 42.5V51.5C29 53.135 29.889 54.644 31.32 55.438C31.4362 55.5013 31.5727 55.5163 31.7 55.4798C31.8272 55.4434 31.935 55.3583 32 55.243C32.0319 55.1856 32.0521 55.1224 32.0596 55.0571C32.067 54.9918 32.0615 54.9257 32.0434 54.8626C32.0253 54.7994 31.9949 54.7405 31.954 54.6891C31.9131 54.6377 31.8625 54.5938 31.805 54.562ZM33.5 39H45.5C47.43 39 49 40.57 49 42.5V43H30V42.5C30 40.57 31.57 39 33.5 39ZM53 59.5C53 59.6326 52.9473 59.7598 52.8536 59.8536C52.7598 59.9473 52.6326 60 52.5 60C52.3674 60 52.2402 59.9473 52.1464 59.8536C52.0527 59.7598 52 59.6326 52 59.5C52 57.863 51.006 56.474 49.404 55.873L44.324 53.968C44.2288 53.9322 44.1468 53.8682 44.0889 53.7846C44.031 53.701 44 53.6017 44 53.5V48.607C44 47.818 43.465 47.136 42.756 47.021C42.5405 46.9837 42.3194 46.9939 42.1082 47.0511C41.8971 47.1082 41.701 47.2108 41.5337 47.3517C41.3664 47.4926 41.2319 47.6684 41.1397 47.8668C41.0475 48.0651 40.9999 48.2813 41 48.5V55.924C41 56.344 40.765 56.719 40.386 56.902C40.2023 56.9913 39.997 57.0267 39.794 57.0041C39.5909 56.9814 39.3985 56.9016 39.239 56.774L37.52 55.402C37.2295 55.13 36.8428 54.9846 36.445 54.9977C36.0472 55.0109 35.671 55.1815 35.399 55.472C35.127 55.7625 34.9816 56.1492 34.9947 56.547C35.0079 56.9448 35.1785 57.321 35.469 57.593L37.102 59.144C37.1976 59.2346 37.2533 59.3594 37.2569 59.4911C37.2605 59.6227 37.2116 59.7504 37.121 59.846C37.0304 59.9416 36.9056 59.9973 36.7739 60.0009C36.6423 60.0045 36.5146 59.9556 36.419 59.865L34.779 58.317C34.2918 57.8684 34.0028 57.2446 33.9755 56.5829C33.9482 55.9212 34.1849 55.2757 34.6335 54.7885C35.0821 54.3013 35.7059 54.0123 36.3676 53.985C37.0293 53.9577 37.6748 54.1944 38.162 54.643L39.86 55.992L39.998 55.925V48.501C39.998 47.767 40.319 47.072 40.879 46.596C41.1577 46.3612 41.4838 46.1895 41.8351 46.0925C42.1863 45.9955 42.5543 45.9755 42.914 46.034C44.102 46.228 44.998 47.334 44.998 48.607V53.153L49.754 54.936C51.755 55.687 52.998 57.436 52.998 59.499L53 59.5Z" fill="#1C1C1C"/>
</g>
<defs>
<clipPath id="clip0_492_3887">
<rect width="24" height="24" fill="white" transform="translate(29 36)"/>
</clipPath>
</defs>
</svg>
