<svg width="44" height="44" viewBox="0 0 44 44" fill="none" xmlns="http://www.w3.org/2000/svg">
<path d="M40.5472 7.94434H20.1022C19.9191 7.94434 19.7352 7.85634 19.5522 7.7613L13.2311 2.99434C12.7553 2.63704 12.1762 2.44402 11.5811 2.44434H3.97266C2.41418 2.44434 1.22266 3.63586 1.22266 5.19434V38.1949C1.22266 39.7534 2.41418 40.9449 3.97266 40.9449H40.6396C42.1981 40.9449 43.3896 39.7534 43.3896 38.1949V10.6943C43.2972 9.13586 42.1022 7.94434 40.5472 7.94434ZM27.7142 27.1943C27.7142 28.7528 26.5227 29.9443 24.9642 29.9443H19.4642C17.9057 29.9443 16.7142 28.7528 16.7142 27.1943V23.5283C16.7075 22.9612 16.8815 22.4067 17.2111 21.9452C17.5407 21.4836 18.0087 21.139 18.5472 20.9613V19.8613C18.5397 19.375 18.629 18.8921 18.8098 18.4407C18.9907 17.9892 19.2596 17.5783 19.6008 17.2317C19.942 16.8852 20.3487 16.61 20.7973 16.4221C21.2459 16.2343 21.7274 16.1375 22.2137 16.1375C22.7001 16.1375 23.1815 16.2343 23.6301 16.4221C24.0787 16.61 24.4855 16.8852 24.8267 17.2317C25.1679 17.5783 25.4368 17.9892 25.6176 18.4407C25.7985 18.8921 25.8878 19.375 25.8803 19.8613V20.9613C26.4188 21.139 26.8868 21.4836 27.2164 21.9452C27.5459 22.4067 27.72 22.9612 27.7133 23.5283L27.7142 27.1943Z" fill="#8E9194"/>
<path d="M22.2139 18.0283C21.7282 18.0297 21.2627 18.2233 20.9193 18.5667C20.5758 18.9102 20.3823 19.3756 20.3809 19.8614V20.7783H24.0478V19.8614C24.0464 19.3755 23.8527 18.9099 23.5091 18.5664C23.1654 18.223 22.6998 18.0295 22.2139 18.0283Z" fill="#8E9194"/>
<path d="M40.5469 6.11133C40.8223 6.11133 41.1884 6.11133 41.4639 6.19933V6.11133C41.4639 4.55285 40.2723 3.36133 38.7139 3.36133H16.7139L20.3808 6.11133H40.5469Z" fill="#8E9194"/>
</svg>
