<svg width="92" height="100" viewBox="0 0 92 100" fill="none" xmlns="http://www.w3.org/2000/svg">
<path d="M0.6 48.9C0.2 48.9 0 48.0333 0 46.3C0 44.5667 0.333333 42.5667 1 40.3C1.6 38.3 2.4 36.2667 3.4 34.2C3.6 33.8 4 33.0333 4.6 31.9C4.8 31.5 5.1 31.0333 5.5 30.5C7.1 27.9667 8.76667 25.6333 10.5 23.5C12.3 21.3 14.2333 19.1667 16.3 17.1C20.3 13.1667 24.8 9.63333 29.8 6.5C32.5333 4.83333 35.1 3.46666 37.5 2.4C40.5667 1.13333 43.5 0.366666 46.3 0.0999987C47.0333 0.0333329 47.4333 0 47.5 0C47.9667 0 48.3667 0 48.7 0C49.5667 0 50.3667 0.0666658 51.1 0.199997C52.8333 0.399999 54.4333 0.866665 55.9 1.6C56.7 2.06667 57.4333 2.56667 58.1 3.1C58.7667 3.7 59.3667 4.33333 59.9 5C60.9667 6.4 61.6667 8 62 9.8C62.3333 11.3333 62.4333 12.9667 62.3 14.7C62.1667 16.1 61.9 17.6333 61.5 19.3C61.3667 19.8333 61.2667 20.2 61.2 20.4C61.0667 20.8 60.9667 21.1333 60.9 21.4L60.5 22.5C60.5 22.5667 60.4667 22.6667 60.4 22.8C60.3333 22.8667 60.2667 23 60.2 23.2C60.2 23.3333 60.1667 23.4333 60.1 23.5C59.7 24.6333 59.1667 25.9667 58.5 27.5C56.3 32.2333 53.3 37.1 49.5 42.1C45.7667 46.9667 42.0333 51.2333 38.3 54.9C36.5 56.7 34.4 58.6333 32 60.7C30.4 61.9667 29.2667 62.8667 28.6 63.4C28.1333 63.8 27 64.6333 25.2 65.9C25 66.0333 24.5 66.3333 23.7 66.8C22.5 67.5333 21.7667 67.9667 21.5 68.1C19.5 69.1667 17.5667 70.0667 15.7 70.8C15.5 70.8667 15.3333 70.9333 15.2 71C15.1333 71.1333 15.0667 71.3 15 71.5C15 71.7 14.9667 71.9 14.9 72.1C14.8333 72.3 14.8 72.4667 14.8 72.6C13.5333 77.6 12.2 83.4667 10.8 90.2C10.6 91.2667 10 93.0333 9 95.5C7.86667 98.3 6.96667 99.6333 6.3 99.5C5.7 99.4333 5.4 97.8667 5.4 94.8C5.4 92.4 5.53333 90.5 5.8 89.1C7.06667 82.9667 8.26667 77.5 9.4 72.7C8.13333 72.9 7.43333 72.8667 7.3 72.6C7.23333 72.2667 7.9 71.6333 9.3 70.7C9.43333 70.5667 9.66667 70.4 10 70.2C11.4667 64.4 12.9667 58.9667 14.5 53.9C16.3667 47.9 18.3667 42.1333 20.5 36.6C22.6333 31.0667 25.1 25.5 27.9 19.9C28.1 19.5 28.5 18.8333 29.1 17.9C29.8333 16.7667 30.5333 15.8667 31.2 15.2C33.1333 12.8 34.3667 11.7667 34.9 12.1C35.4333 12.4333 35.2667 14.0333 34.4 16.9C33.8 18.7667 33.4333 19.8333 33.3 20.1C32.9667 21.1 32.7 21.8 32.5 22.2C29.7667 27.6667 27.3667 33.1 25.3 38.5C23.2333 43.9 21.3 49.5333 19.5 55.4C18.5 58.6 17.5 62.0667 16.5 65.8C17.3 65.2 18.1333 64.6 19 64C19.2 63.8667 19.4 63.7333 19.6 63.6C19.8667 63.4 20.1 63.2 20.3 63C20.5667 62.8 20.7667 62.6667 20.9 62.6C21.1667 62.4 21.5 62.1667 21.9 61.9C22.0333 61.7667 22.1333 61.6667 22.2 61.6C23.9333 60.4 25.0333 59.6333 25.5 59.3C26.1 58.8333 27.1333 57.9667 28.6 56.7C30.9333 54.7667 32.9333 52.9667 34.6 51.3C38.2 47.7667 41.7667 43.6667 45.3 39C48.9 34.2667 51.7333 29.7 53.8 25.3C54.4 23.9 54.9 22.7 55.3 21.7C55.3 21.5667 55.3333 21.4667 55.4 21.4C55.4667 21.2667 55.5 21.1667 55.5 21.1C55.5667 20.9667 55.6 20.8333 55.6 20.7L55.9 19.8C56.0333 19.5333 56.1333 19.2333 56.2 18.9C56.2667 18.7667 56.3667 18.4667 56.5 18C57.2333 15.2667 57.4 12.9 57 10.9C56.7333 9.76667 56.3333 8.83333 55.8 8.1C55.5333 7.76666 55.2 7.43333 54.8 7.1C54.4 6.76666 53.9667 6.46667 53.5 6.2C52.5667 5.73333 51.5333 5.43333 50.4 5.3C49.8667 5.23333 49.2667 5.2 48.6 5.2C48.2 5.13333 47.6 5.13333 46.8 5.2C44.5333 5.46667 42.1333 6.13333 39.6 7.2C37.4 8.13333 35.0667 9.36666 32.6 10.9C27.8667 13.8333 23.6333 17.1333 19.9 20.8C18.0333 22.6667 16.2333 24.6667 14.5 26.8C12.8333 28.8 11.2667 30.9667 9.8 33.3C9.66667 33.4333 9.36667 33.8667 8.9 34.6C8.43333 35.2667 7.96667 35.9333 7.5 36.6C7.1 37.2667 6.6 38.1 6 39.1C5.4 40.0333 4.86667 40.9 4.4 41.7C3.6 43.2333 2.8 44.9 2 46.7C1.33333 48.2333 0.866667 48.9667 0.6 48.9ZM27.3 30.3C27.7 29.1 27.9 28.4333 27.9 28.3C27.7 28.7 27.4667 29.2333 27.2 29.9C26.8667 30.6333 26.6 31.2333 26.4 31.7C25.8 32.9 25.4333 33.6667 25.3 34C25.2333 34.2 25.0667 34.6333 24.8 35.3C24.5333 35.9667 24.3 36.5 24.1 36.9C23.9667 37.2333 23.7667 37.7333 23.5 38.4C23.3667 38.6667 23.1333 39.2333 22.8 40.1C22.6667 40.4333 22.4333 41 22.1 41.8C21.8333 42.5333 21.6333 43.1 21.5 43.5C21.5 43.5 21.0667 44.7 20.2 47.1C19.4 49.3 18.6 51.6 17.8 54C17.0667 56.3333 16.4333 58.4333 15.9 60.3C15.4333 62.1 15.0333 63.6667 14.7 65C14.3667 66.2667 14.2 67.0667 14.2 67.4C14.2 67.4 14.2333 67.4 14.3 67.4C14.3667 67.3333 14.4 67.3 14.4 67.3C14.4667 67.0333 14.6 66.6667 14.8 66.2C15.2 64.9333 15.6333 63.5333 16.1 62C16.2333 61.4667 16.4 60.8667 16.6 60.2C16.8667 59.5333 17.1333 58.8 17.4 58C17.6667 57.1333 17.9 56.4 18.1 55.8C18.2333 55.3333 18.4333 54.7 18.7 53.9C18.9667 53.0333 19.1333 52.4667 19.2 52.2C19.4 51.6667 19.6 51.0667 19.8 50.4C20 49.7333 20.2 49.1333 20.4 48.6C20.5333 48.2 20.6667 47.8 20.8 47.4C21 47 21.1667 46.5667 21.3 46.1C21.5 45.5667 21.6333 45.1667 21.7 44.9C21.9 44.3667 22.1333 43.7667 22.4 43.1C22.8 41.9667 23 41.3667 23 41.3C23.0667 41.1 23.2333 40.6 23.5 39.8C23.8333 39 24.1 38.4 24.3 38C24.4333 37.6 24.8 36.5667 25.4 34.9C25.6667 34.2333 26 33.4 26.4 32.4C26.8667 31.3333 27.1667 30.6333 27.3 30.3ZM12.5 68.5C12.9667 68.2333 13.2667 68.0333 13.4 67.9C14.0667 65.4333 15.2 61.3333 16.8 55.6C16.9333 55.1333 17.1667 54.3667 17.5 53.3C17.7 52.6333 17.8333 52.0667 17.9 51.6C18.1667 50.6667 18.2333 50.3 18.1 50.5C17.9667 50.6333 17.7 51.3 17.3 52.5C17.0333 53.1 16.8 53.7333 16.6 54.4C16.4667 54.8 16.2 55.6333 15.8 56.9C15.7333 57.1 15.6 57.5333 15.4 58.2C15.2 58.8667 15.0333 59.4 14.9 59.8C14.8333 60.0667 14.7333 60.4 14.6 60.8C14.5333 61.2 14.4333 61.6 14.3 62C14.1667 62.3333 14.0667 62.6667 14 63C13.6 64.2667 13.1 66.1 12.5 68.5ZM17.3 47.3C14.9667 54.1667 12.8 61.6333 10.8 69.7C10.9333 69.5667 11.1 69.4333 11.3 69.3C13.0333 63.1 14.8333 57.2667 16.7 51.8C18.9 45.1333 21.4333 38.4333 24.3 31.7C24.7667 30.6333 25.3333 29.3333 26 27.8C26.1333 27.5333 26.3667 26.9667 26.7 26.1C26.7667 26.0333 26.8333 25.9333 26.9 25.8C26.9667 25.6 27 25.4667 27 25.4C27.0667 25.2667 27.1333 25.1333 27.2 25C27.2667 24.8667 27.3333 24.7333 27.4 24.6C27.8 23.6667 28.1333 22.8667 28.4 22.2C28.8 21.2667 29 20.7667 29 20.7C29.2 20.0333 28.9667 20.2667 28.3 21.4C27.7667 22.4 26.8333 24.2333 25.5 26.9C25.3 27.3 24.6667 28.7 23.6 31.1C23.5333 31.1667 23.4667 31.3 23.4 31.5C23.3333 31.6333 23.2667 31.7667 23.2 31.9C23.2 32.0333 23.1667 32.1667 23.1 32.3C23.0333 32.4333 22.9333 32.6333 22.8 32.9C22.7333 33.1667 22.6667 33.3667 22.6 33.5C22.3333 34.1 21.9667 34.9333 21.5 36C20.1 39.4667 18.7 43.2333 17.3 47.3ZM7.2 85.5C7.2 85.3 7.23333 85.0667 7.3 84.8C7.76667 82.9333 8.13333 81.4333 8.4 80.3C8.46667 79.9667 8.6 79.4 8.8 78.6C9 77.8 9.16667 77.1667 9.3 76.7C9.3 76.7 9.66667 75.3 10.4 72.5C10.2 72.5 10.1 72.5333 10.1 72.6C9.63333 74.4 9.4 75.3667 9.4 75.5C9.2 76.1 9 76.9 8.8 77.9C8.6 78.9667 8.46667 79.5667 8.4 79.7C8.2 80.7667 7.83333 82.4667 7.3 84.8C7.23333 85.2 7.2 85.4333 7.2 85.5ZM9.8 81.8C9.8 81.7333 10.1 80.4333 10.7 77.9C11.3667 75.3667 11.9 73.4 12.3 72C12.0333 72.0667 11.8 72.1333 11.6 72.2C11.4667 72.7333 11.2667 73.5 11 74.5C10.8 75.5 10.6333 76.2333 10.5 76.7C10.3667 77.4333 10.1333 78.4667 9.8 79.8C9.53333 81.1333 9.33333 82.1 9.2 82.7C9.06667 83.1667 8.93333 83.6667 8.8 84.2C8.73333 84.8 8.63333 85.3333 8.5 85.8C8.43333 86.2667 8.36667 86.6333 8.3 86.9L8 88.5C8.2 88.2333 8.8 86 9.8 81.8ZM42.5 44.5C41.7667 45.4333 41 46.3333 40.2 47.2C39.4667 48.0667 38.8 48.8333 38.2 49.5C37.6 50.1667 37 50.8 36.4 51.4C35.8667 51.9333 35.4 52.4 35 52.8C34.6667 53.1333 34.3667 53.4333 34.1 53.7C33.9 53.9667 33.8 54.1333 33.8 54.2C33.9333 54.0667 34.1333 53.9 34.4 53.7C34.9333 53.1667 35.5 52.6 36.1 52C36.2333 51.8667 36.4333 51.7 36.7 51.5C36.7 51.4333 36.7333 51.3667 36.8 51.3C36.9333 51.2333 37.0333 51.1667 37.1 51.1C37.1667 50.9667 37.2333 50.8667 37.3 50.8C37.7667 50.3333 38.2333 49.8667 38.7 49.4C40.3667 47.6 41.4333 46.4333 41.9 45.9C44.7667 42.7 47.2333 39.6 49.3 36.6C52.1667 32.5333 54.4667 28.5667 56.2 24.7C56.2667 24.5 56.3667 24.2 56.5 23.8C56.7 23.3333 56.8 23.1 56.8 23.1C56.8667 22.9 56.9667 22.6333 57.1 22.3C57.2333 21.9 57.3667 21.6 57.5 21.4C57.5 21.3333 57.5667 21.1 57.7 20.7C57.8333 20.3 57.9333 20 58 19.8C58.2 19.2667 58.3667 18.7 58.5 18.1C59.1 15.6333 59.3 13.4333 59.1 11.5C58.9667 10.3667 58.7 9.36667 58.3 8.5C57.9 7.56666 57.3333 6.73333 56.6 6C55.4 4.8 53.7667 3.96667 51.7 3.5C50.1667 3.16666 48.5667 3.06666 46.9 3.2C45.6333 3.33333 44.3667 3.56666 43.1 3.9C41.2333 4.43333 40 4.9 39.4 5.3C39.3333 5.36666 39.5 5.33333 39.9 5.2C39.9667 5.2 40.0667 5.2 40.2 5.2C40.4 5.13333 40.5667 5.06667 40.7 5C41.0333 4.93333 41.4 4.83333 41.8 4.7C43 4.36667 44.1 4.13333 45.1 4C46.7667 3.73333 48.2667 3.66666 49.6 3.8C51.4667 4 53.0667 4.46667 54.4 5.2C55.2667 5.73333 55.9667 6.3 56.5 6.9C57.0333 7.63333 57.4667 8.46666 57.8 9.4C58.4 11.0667 58.5333 13.1333 58.2 15.6C58.0667 16.6667 57.8333 17.7333 57.5 18.8L57.2 19.7L57 20.5C56.8 20.9667 56.6 21.5333 56.4 22.2C54.8667 26.2 52.7 30.3 49.9 34.5C47.9 37.6333 45.4333 40.9667 42.5 44.5ZM11 23.9C10.5333 24.4333 10.2667 24.7667 10.2 24.9C10.4 24.6333 10.6667 24.3 11 23.9C13.0667 21.4333 15.0667 19.3 17 17.5C20.6667 13.9667 24.6333 10.8667 28.9 8.2C31.9667 6.26666 34.7 4.8 37.1 3.8C38.7 3.06666 40.2667 2.5 41.8 2.1C42.4667 1.9 43.3333 1.7 44.4 1.5C45.4667 1.3 46.3333 1.2 47 1.2C49 1.06666 50.8333 1.23333 52.5 1.7C54.5667 2.23333 56.3 3.13333 57.7 4.4C57.7667 4.53333 57.9333 4.73333 58.2 5C58.3333 5.06667 58.5 5.26667 58.7 5.6C58.7 5.6 58.7667 5.66667 58.9 5.8C59.0333 5.93333 59.1 6.06667 59.1 6.2L59.5 6.8C60.0333 7.73333 60.4 8.66666 60.6 9.6C61 11.3333 61.0667 13.2333 60.8 15.3C60.6667 16.9 60.2667 18.7 59.6 20.7C59.0667 22.2333 58.4 23.8667 57.6 25.6C57 27.0667 56.2333 28.6667 55.3 30.4C54.5 31.8 53.6333 33.2667 52.7 34.8C51.8333 36.1333 50.9 37.5 49.9 38.9C49.0333 40.0333 48.0333 41.3 46.9 42.7C44.8333 45.3667 42.9 47.6333 41.1 49.5C37.9667 53.0333 34.5333 56.3667 30.8 59.5C29.6667 60.5 28.4 61.5667 27 62.7C25.6 63.7667 24.8333 64.3667 24.7 64.5C23.7 65.3667 24.2333 65.1 26.3 63.7C29.3 61.6333 32.3 59.2333 35.3 56.5C39.6333 52.6333 43.8 48.1667 47.8 43.1C48.9333 41.6333 50 40.2 51 38.8C52.1333 37.2667 53.1667 35.7333 54.1 34.2C56.2333 30.7333 57.9667 27.2333 59.3 23.7C61.1667 18.9667 61.9667 14.9333 61.7 11.6C61.5667 10.4 61.3 9.3 60.9 8.3C60.5667 7.16667 60 6.13333 59.2 5.2C58.5333 4.26667 57.7 3.46667 56.7 2.8C55.7667 2.2 54.7333 1.73333 53.6 1.4C51.6667 0.733334 49.5667 0.466667 47.3 0.599998C46.3 0.666664 45.3 0.799998 44.3 0.999999C43.2333 1.2 42.3 1.43333 41.5 1.7C38.5 2.56666 35.2333 4.03333 31.7 6.1C28.9 7.76666 26.2667 9.53333 23.8 11.4C21.8 13 19.8 14.7333 17.8 16.6C15.5333 18.7333 13.2667 21.1667 11 23.9ZM8.7 29.3L8.3 29.9C8.36667 29.8333 8.5 29.6667 8.7 29.4C8.9 29.1333 9.16667 28.8 9.5 28.4C9.83333 28 10.2333 27.5 10.7 26.9C11.2333 26.2333 11.7667 25.6 12.3 25C12.8333 24.3333 13.4667 23.6 14.2 22.8C15 21.9333 15.8 21.1 16.6 20.3C19.5333 17.3667 22.5667 14.7333 25.7 12.4C27.3 11.2667 29.1667 10.0333 31.3 8.7C33.4333 7.36666 35.4333 6.3 37.3 5.5C39.5 4.43333 41.6333 3.66667 43.7 3.2C46.0333 2.73333 48.1667 2.6 50.1 2.8C52.2333 3 54.1 3.6 55.7 4.6C56.5 5.2 57.1333 5.83333 57.6 6.5C57.7333 6.56667 58 6.9 58.4 7.5C58.4 7.63333 58.4333 7.76666 58.5 7.9C58.5667 8.03333 58.6333 8.1 58.7 8.1L58.8 8.4C58.8667 8.53333 58.9 8.63333 58.9 8.7C59.4333 9.96667 59.7 11.3667 59.7 12.9C59.7667 13.9 59.7333 14.9667 59.6 16.1C59.5333 16.1667 59.4333 16.8 59.3 18C59.2333 18.3333 59.2333 18.4333 59.3 18.3C59.4333 17.9667 59.5667 17.5333 59.7 17C59.9 16.2 60.0333 15.3 60.1 14.3C60.2333 12.9 60.2 11.6 60 10.4C59.8667 9.73333 59.6333 8.96666 59.3 8.1C58.9667 7.36666 58.7667 7 58.7 7C58.7 6.93333 58.6333 6.83333 58.5 6.7C58.4333 6.56667 58.3667 6.46667 58.3 6.4C58.2333 6.33333 58.1 6.16666 57.9 5.9C56.7667 4.43333 55.1667 3.36667 53.1 2.7C51.1667 2.1 49.0667 1.9 46.8 2.1C45.7333 2.16666 44.6667 2.33333 43.6 2.6C42.5333 2.8 41.4667 3.1 40.4 3.5C38.4667 4.16666 36.4 5.06666 34.2 6.2C27 10.1333 20.6333 15.1667 15.1 21.3C14.9667 21.4333 14.7667 21.6333 14.5 21.9C14.3 22.1 14.1 22.3 13.9 22.5C13.7667 22.7 13.6333 22.9 13.5 23.1C12.7667 23.9667 12.3 24.5 12.1 24.7C10.9667 26.1667 10.2667 27.0667 10 27.4C9.93333 27.5333 9.8 27.7333 9.6 28C9.46667 28.2 9.36667 28.3667 9.3 28.5C9.23333 28.5667 9.16667 28.6667 9.1 28.8C9.03333 28.8667 8.96667 28.9667 8.9 29.1C8.83333 29.1667 8.76667 29.2333 8.7 29.3Z" fill="#1C1C1C"/>
<path d="M74.3883 62.3C75.6549 62.1 76.3216 62.0667 76.3883 62.2C76.3883 62.3333 75.7883 62.6667 74.5883 63.2C73.7883 63.4667 73.0216 63.7 72.2883 63.9C71.8216 63.9667 71.3216 64.0333 70.7883 64.1C69.9883 64.1 69.3216 63.9667 68.7883 63.7C68.1883 63.4333 67.7216 62.9333 67.3883 62.2C67.1883 61.8667 67.0549 61.5 66.9883 61.1C66.9216 60.7667 66.8883 60.4333 66.8883 60.1C66.8216 59.4333 66.7883 58.7667 66.7883 58.1C66.8549 57.4333 66.9216 56.7333 66.9883 56C67.0549 55.4667 67.1883 54.8 67.3883 54C67.3883 53.9333 67.3883 53.8667 67.3883 53.8C67.3883 53.6667 67.3883 53.5667 67.3883 53.5L67.4883 53.2C67.4883 53.1333 67.4883 53.0667 67.4883 53C67.4883 52.8667 67.4883 52.7667 67.4883 52.7C67.5549 52.3667 67.5883 52.0667 67.5883 51.8C67.5883 51.6667 67.5883 51.5333 67.5883 51.4C67.5216 51.2667 67.3883 51.1667 67.1883 51.1C67.1216 51.1 67.0216 51.1333 66.8883 51.2C66.755 51.2667 66.6549 51.3333 66.5883 51.4C66.3883 51.5333 66.1883 51.7 65.9883 51.9C65.8549 52.0333 65.7216 52.2 65.5883 52.4L65.4883 52.5C65.3549 52.6333 65.2883 52.7 65.2883 52.7L64.7883 53.3C63.6549 54.6333 62.2549 56.4667 60.5883 58.8C58.1216 62.4 55.7883 66.0667 53.5883 69.8C51.9216 72.7333 50.4216 75.5667 49.0883 78.3C48.4216 79.7 48.0216 80.5333 47.8883 80.8L47.4883 81.7C47.1549 82.3 46.5549 82.9667 45.6883 83.7C45.5549 83.7 45.4549 83.7333 45.3883 83.8C45.1216 84.2667 44.8549 84.7 44.5883 85.1C43.6549 86.3 42.8883 86.8333 42.2883 86.7C41.6883 86.5667 41.2549 85.7 40.9883 84.1C40.8549 82.8333 40.8549 81.8667 40.9883 81.2C44.1883 69.6 48.6549 58.4667 54.3883 47.8C54.7216 47.2 55.4216 46.5333 56.4883 45.8C57.6883 44.8 58.5549 44.4667 59.0883 44.8C59.6216 45.0667 59.7883 45.9667 59.5883 47.5C59.4549 48.9 59.2549 49.8333 58.9883 50.3C57.1883 53.6333 55.5216 57.0333 53.9883 60.5C55.0549 59.0333 56.1216 57.6333 57.1883 56.3C59.0549 53.9 60.6216 52.0333 61.8883 50.7C62.2216 50.4333 62.4549 50.2 62.5883 50L63.0883 49.6C63.3549 49.3333 63.5216 49.1667 63.5883 49.1C64.3883 48.3667 65.1216 47.8 65.7883 47.4C66.5216 46.9333 67.2216 46.6333 67.8883 46.5C68.2216 46.4333 68.5216 46.4 68.7883 46.4C69.1883 46.4 69.5216 46.4667 69.7883 46.6C69.9883 46.7333 70.1883 46.8667 70.3883 47C70.5216 47.2 70.6216 47.3667 70.6883 47.5C70.8216 47.8333 70.9216 48.2333 70.9883 48.7L71.0883 49V49.3C71.0883 49.7 71.0549 49.9667 70.9883 50.1C70.9883 50.1 70.9883 50.2 70.9883 50.4C70.9883 50.6 70.9549 50.7667 70.8883 50.9C70.8883 50.9667 70.8549 51.1 70.7883 51.3C70.7883 51.4333 70.7883 51.5333 70.7883 51.6C70.655 52.3333 70.5216 52.8667 70.3883 53.2C70.3883 53.2667 70.3883 53.3667 70.3883 53.5L70.1883 54C70.1883 54.0667 70.1549 54.1667 70.0883 54.3C70.0883 54.4333 70.0883 54.5 70.0883 54.5C69.8883 55.3 69.7216 55.9667 69.5883 56.5C69.4549 57.1667 69.3549 57.7667 69.2883 58.3C69.2883 58.3667 69.255 58.6667 69.1883 59.2C69.1216 59.7333 69.0883 60 69.0883 60C69.0883 60.2667 69.0883 60.5 69.0883 60.7C69.0883 60.9 69.1216 61.1 69.1883 61.3C69.3216 61.6333 69.5216 61.9 69.7883 62.1C70.055 62.3 70.4216 62.4 70.8883 62.4C71.2883 62.4667 71.7216 62.5 72.1883 62.5C72.7216 62.4333 73.4549 62.3667 74.3883 62.3ZM56.7883 57.5C55.7883 58.7667 54.6549 60.3 53.3883 62.1C53.3216 62.1667 53.2549 62.2667 53.1883 62.4C53.1216 62.5333 53.0883 62.6 53.0883 62.6C52.755 63.3333 52.4216 64.1333 52.0883 65C52.4883 64.3333 52.8883 63.7333 53.2883 63.2C54.3549 61.6 55.4883 59.9667 56.6883 58.3C58.0216 56.5 59.2216 54.9333 60.2883 53.6C60.8883 52.8667 61.4883 52.1667 62.0883 51.5C62.4216 51.1 62.7216 50.7667 62.9883 50.5C63.1216 50.3667 63.3216 50.2 63.5883 50C63.6549 49.8667 63.8549 49.6667 64.1883 49.4C65.7216 47.9333 67.1549 47.1 68.4883 46.9C68.8883 46.9 69.2549 46.9333 69.5883 47C69.6549 47.0667 69.755 47.1667 69.8883 47.3C70.0216 47.3667 70.1216 47.4667 70.1883 47.6C70.3216 47.7333 70.4216 47.9667 70.4883 48.3C70.4883 48.1667 70.4549 48 70.3883 47.8C70.3216 47.6667 70.2216 47.5333 70.0883 47.4C69.9549 47.2 69.7883 47.0667 69.5883 47C69.2549 46.8667 68.8883 46.8333 68.4883 46.9C67.2216 47.0333 65.8216 47.7667 64.2883 49.1C63.955 49.4333 63.555 49.8333 63.0883 50.3C62.6883 50.6333 62.3883 50.9 62.1883 51.1C61.5883 51.7667 60.9883 52.4333 60.3883 53.1C59.4549 54.1667 58.2549 55.6333 56.7883 57.5ZM62.8883 51.8C62.2883 52.3333 61.5883 53.0667 60.7883 54C59.5883 55.4667 58.2216 57.2 56.6883 59.2C55.2216 61.2 53.8883 63.1 52.6883 64.9C52.1549 65.7 51.7549 66.4 51.4883 67C51.1549 67.5333 50.9883 67.8667 50.9883 68C50.9883 68.1333 51.0549 68.1 51.1883 67.9C51.3216 67.7 51.555 67.3667 51.8883 66.9C52.2883 66.3667 52.6883 65.8333 53.0883 65.3C53.4883 64.7 53.9549 63.9667 54.4883 63.1C55.0883 62.2333 55.6549 61.4333 56.1883 60.7C57.4549 58.8333 58.8216 56.9333 60.2883 55C60.6216 54.5333 60.9883 54.0667 61.3883 53.6C61.7883 53.0667 62.1216 52.6667 62.3883 52.4C62.6549 52.0667 62.8216 51.8667 62.8883 51.8ZM57.5883 51.7C57.5216 51.7667 57.4549 51.8333 57.3883 51.9C57.3216 52.0333 57.1549 52.3333 56.8883 52.8C56.6883 53.2 56.4883 53.5667 56.2883 53.9C55.9549 54.4333 55.6549 54.9333 55.3883 55.4C55.1883 55.8667 54.8549 56.5 54.3883 57.3C52.9216 60.1667 51.5216 63.0333 50.1883 65.9C50.8549 64.9 51.5549 63.9 52.2883 62.9C52.9549 61.2333 53.6216 59.6667 54.2883 58.2C55.2216 56.3333 55.8883 55 56.2883 54.2C56.4883 53.7333 56.8549 52.9667 57.3883 51.9C57.4549 51.7667 57.5216 51.7 57.5883 51.7ZM54.9883 52.6C53.8549 54.6 52.8216 56.6 51.8883 58.6C50.8883 60.6667 50.0216 62.6667 49.2883 64.6C48.6216 66.4667 48.3883 67.3333 48.5883 67.2C48.7216 67.0667 48.9549 66.6 49.2883 65.8C49.6883 65 50.2549 63.8 50.9883 62.2C51.7216 60.5333 52.3216 59.2 52.7883 58.2C52.9883 57.8 53.2549 57.2333 53.5883 56.5C53.9216 55.7667 54.1549 55.3 54.2883 55.1C54.4216 54.7667 54.6216 54.3 54.8883 53.7C55.2216 53.1 55.4549 52.6667 55.5883 52.4C55.8549 51.9333 56.1883 51.3 56.5883 50.5L56.8883 49.8C56.6883 49.8667 56.0549 50.8 54.9883 52.6ZM47.0883 68.6C47.5549 67.4667 48.1549 66.0333 48.8883 64.3C49.6883 62.5 50.2549 61.1667 50.5883 60.3C50.9216 59.4333 51.0549 58.9667 50.9883 58.9C50.9216 58.7667 50.7216 59 50.3883 59.6C49.2549 61.4667 48.0216 64.2 46.6883 67.8C45.6883 70.2 44.8883 72.4667 44.2883 74.6C44.0216 75.4667 43.8216 76.2333 43.6883 76.9C43.7549 76.7667 43.8549 76.6 43.9883 76.4C44.1216 76.1333 44.2216 75.9333 44.2883 75.8C44.3549 75.6667 44.4549 75.5 44.5883 75.3C44.5883 75.2333 44.5883 75.1667 44.5883 75.1C45.5883 72.4333 46.4216 70.2667 47.0883 68.6ZM47.6883 71.9C48.6883 70.2333 49.5216 68.8667 50.1883 67.8C50.5216 66.9333 50.8883 66.0667 51.2883 65.2C50.4216 66.4667 49.6549 67.6667 48.9883 68.8C48.5216 69.8667 48.0883 70.9 47.6883 71.9ZM68.7883 52.5C68.9216 51.7667 69.0216 51.1667 69.0883 50.7C69.1549 50.1 69.1883 49.7333 69.1883 49.6C69.1883 49.4 69.1549 49.2333 69.0883 49.1C69.0216 48.8333 68.8549 48.7 68.5883 48.7C68.3883 48.6333 68.0883 48.6667 67.6883 48.8C67.3549 48.9333 67.055 49.1 66.7883 49.3C66.255 49.6333 65.6549 50.1 64.9883 50.7C64.6549 51.0333 64.3883 51.3333 64.1883 51.6C63.9216 51.8667 63.5883 52.2 63.1883 52.6C62.5883 53.2667 61.9883 53.9667 61.3883 54.7C58.9883 57.7667 56.7216 60.9 54.5883 64.1C52.8549 66.7667 51.2216 69.4333 49.6883 72.1C49.2216 72.9667 48.8549 73.6667 48.5883 74.2C48.5216 74.3333 48.4549 74.4667 48.3883 74.6C48.3883 74.6667 48.3549 74.7667 48.2883 74.9C48.2883 74.9667 48.2883 75.0333 48.2883 75.1C51.2216 70.0333 53.3216 66.5333 54.5883 64.6C56.7883 61.2667 59.055 58.1 61.3883 55.1C62.055 54.2333 62.6883 53.5 63.2883 52.9C63.5549 52.5667 63.8549 52.2 64.1883 51.8C64.255 51.7333 64.3216 51.6667 64.3883 51.6C64.5216 51.4667 64.5883 51.4 64.5883 51.4C64.7216 51.2667 64.8549 51.1333 64.9883 51C65.6549 50.3333 66.2216 49.8333 66.6883 49.5C67.0216 49.3 67.3216 49.1333 67.5883 49C67.9883 48.8667 68.2883 48.8 68.4883 48.8C68.6883 48.8667 68.8549 49 68.9883 49.2C69.0549 49.2667 69.0883 49.4 69.0883 49.6C69.0883 49.8 69.0549 50.1333 68.9883 50.6C68.9216 51.1333 68.8549 51.6667 68.7883 52.2C68.5883 53.1333 68.4549 53.7333 68.3883 54C68.3883 54 68.5216 53.5 68.7883 52.5Z" fill="#1C1C1C"/>
<path d="M91.55 54.4C91.75 55 91.85 55.6667 91.85 56.4C91.7833 57.4667 91.5833 58.8333 91.25 60.5C90.9833 61.9 90.65 63.2333 90.25 64.5C89.45 67.3667 88.4167 70.1333 87.15 72.8C86.4833 74.1333 85.7167 75.4667 84.85 76.8C84.5833 77.3333 84.1833 77.9667 83.65 78.7C82.9833 79.5667 82.5167 80.2 82.25 80.6C81.05 82.1333 79.8167 83.3 78.55 84.1C77.6167 84.7 76.6833 85.0667 75.75 85.2C75.6833 85.2 75.6167 85.2333 75.55 85.3H75.25C75.1167 85.3 74.95 85.3 74.75 85.3C74.4167 85.3 74.1167 85.2667 73.85 85.2C73.1833 85.1333 72.5833 84.9 72.05 84.5C71.65 84.2333 71.3167 83.9333 71.05 83.6C70.9167 83.4667 70.7833 83.3 70.65 83.1C70.5833 82.9 70.4833 82.7333 70.35 82.6C70.2167 82.2667 70.0833 81.9333 69.95 81.6C69.8167 81.2 69.7167 80.9333 69.65 80.8C69.3833 79.8 69.2167 78.7 69.15 77.5C69.0167 75.7 69.1833 73.7 69.65 71.5C70.25 68.5 71.2833 65.4 72.75 62.2C73.6167 60.3333 74.65 58.4 75.85 56.4C75.9833 56.2667 76.1167 56.1 76.25 55.9C76.3833 55.7 76.4833 55.5 76.55 55.3C76.6833 55.1 76.7833 54.9667 76.85 54.9L77.15 54.4C77.35 54.0667 77.7167 53.6667 78.25 53.2C78.25 52.9333 78.4833 52.5667 78.95 52.1C79.55 51.3667 80.6167 50.7667 82.15 50.3C83.15 50.0333 83.9833 49.8333 84.65 49.7C85.85 49.5 86.95 49.5333 87.95 49.8C88.55 50.0667 89.1167 50.4 89.65 50.8C90.1167 51.2667 90.5167 51.8 90.85 52.4C91.1833 53 91.4167 53.6667 91.55 54.4ZM77.55 64.5C76.15 67.3 75.15 70 74.55 72.6C74.0833 74.3333 73.85 75.9 73.85 77.3C73.85 78.1 73.95 78.8333 74.15 79.5C74.15 79.6333 74.1833 79.7667 74.25 79.9V80.1C74.3167 80.2333 74.3833 80.3667 74.45 80.5V80.6C74.5167 80.6 74.55 80.6333 74.55 80.7C74.55 80.7 74.5833 80.7333 74.65 80.8C74.7167 80.8667 74.85 80.9 75.05 80.9C75.45 80.8333 75.85 80.6667 76.25 80.4C77.1833 79.9333 78.1167 79.1333 79.05 78C79.3833 77.6667 79.85 77.1333 80.45 76.4C80.9833 75.6667 81.3833 75.1 81.65 74.7C82.5167 73.5 83.2833 72.3 83.95 71.1C85.2833 68.7 86.4167 66.2 87.35 63.6C87.75 62.4 88.15 61.1333 88.55 59.8C88.95 58.3333 89.1833 57.1667 89.25 56.3C89.3167 55.2333 89.1833 54.3 88.85 53.5C88.45 52.6333 87.9167 52.0333 87.25 51.7C86.5833 51.3667 85.7833 51.2333 84.85 51.3C84.3167 51.3667 83.65 51.4667 82.85 51.6C83.25 52.0667 83.2833 53.0333 82.95 54.5C82.6167 55.9 82.25 56.9 81.85 57.5C81.7833 57.6333 81.65 57.8 81.45 58C81.45 58.0667 81.3833 58.2 81.25 58.4C81.1833 58.5333 81.0833 58.7 80.95 58.9C80.8167 59.0333 80.6833 59.2 80.55 59.4C79.4167 61.2 78.4167 62.9 77.55 64.5ZM88.05 69.4C88.7167 67.8667 89.0833 66.9 89.15 66.5C89.15 66.6333 89.0833 66.9 88.95 67.3C88.95 67.3 88.8167 67.6 88.55 68.2C88.4833 68.5333 88.3167 68.9333 88.05 69.4C86.9167 72.2 85.45 74.9 83.65 77.5C83.45 77.7667 83.3167 77.9667 83.25 78.1C83.1833 78.1667 83.0833 78.2667 82.95 78.4C82.8833 78.5333 82.8167 78.6333 82.75 78.7C82.4167 79.1667 82.1167 79.5667 81.85 79.9C81.1167 80.8333 80.3833 81.6 79.65 82.2C79.25 82.6 78.8167 82.9333 78.35 83.2C78.0167 83.4667 77.75 83.6333 77.55 83.7C77.2833 83.8333 77.0167 83.9667 76.75 84.1C76.0167 84.3667 75.3167 84.4667 74.65 84.4C73.85 84.4 73.15 84.2 72.55 83.8C72.15 83.4667 71.7833 83.0667 71.45 82.6C71.3833 82.4667 71.3167 82.3333 71.25 82.2C71.1833 82.1333 71.1167 82.0333 71.05 81.9C70.9833 81.7667 70.9167 81.5667 70.85 81.3C70.5833 80.5667 70.3833 79.8 70.25 79C70.05 77.6 70.05 76.0667 70.25 74.4C70.3167 73.6667 70.4167 73 70.55 72.4C70.75 71.4 70.8833 70.7333 70.95 70.4C71.0833 70.0667 71.1833 69.7667 71.25 69.5C71.25 69.3667 71.3167 69.1 71.45 68.7C71.5167 68.5 71.6833 67.9333 71.95 67C72.4833 65.5333 73.1833 63.8667 74.05 62L74.45 60.7C74.3833 60.7667 74.25 61 74.05 61.4C73.7833 61.8 73.5167 62.2667 73.25 62.8C72.45 64.2667 71.7833 65.9 71.25 67.7C71.1833 67.7 71.0167 68.2333 70.75 69.3C70.6167 69.5667 70.45 70.1333 70.25 71C70.05 72.2667 69.9167 72.9 69.85 72.9C69.7833 73.6333 69.7167 74.3 69.65 74.9C69.5167 76.5 69.5833 78 69.85 79.4C69.9833 80.1333 70.1833 80.8667 70.45 81.6C70.65 82.1333 70.8833 82.5667 71.15 82.9C71.4833 83.4333 71.8833 83.8333 72.35 84.1C73.0167 84.5667 73.7833 84.8 74.65 84.8C75.1167 84.8 75.5167 84.7667 75.85 84.7C76.1833 84.6333 76.4833 84.5333 76.75 84.4C77.0833 84.3333 77.4167 84.2 77.75 84C77.95 83.8667 78.2167 83.7 78.55 83.5C79.0167 83.1667 79.45 82.8 79.85 82.4C80.5833 81.8 81.3167 81 82.05 80C82.3167 79.6667 82.6167 79.2667 82.95 78.8C83.2167 78.4667 83.4833 78.0667 83.75 77.6C85.4833 75 86.9167 72.2667 88.05 69.4ZM71.25 78.5C71.05 77.3667 71.0167 76.0667 71.15 74.6C71.2167 74.4 71.35 73.5333 71.55 72V71.3C71.4833 71.4333 71.35 71.8333 71.15 72.5C70.95 73.3667 70.7833 74.3 70.65 75.3C70.5167 76.7 70.55 77.9667 70.75 79.1C70.8833 79.8333 71.0833 80.5333 71.35 81.2C71.4167 81.4 71.4833 81.6 71.55 81.8C71.6167 81.8667 71.6833 81.9667 71.75 82.1C71.8167 82.1667 71.8833 82.2333 71.95 82.3C72.2167 82.7667 72.5167 83.1 72.85 83.3C73.25 83.6333 73.75 83.8333 74.35 83.9C74.8167 83.9667 75.3167 83.9333 75.85 83.8C76.25 83.6667 76.6833 83.5 77.15 83.3C77.4833 83.1 77.85 82.8667 78.25 82.6C79.25 81.8667 80.2833 80.8333 81.35 79.5C81.95 78.7 82.55 77.8333 83.15 76.9C83.2833 76.7667 83.45 76.5333 83.65 76.2L83.75 76C83.6833 76.0667 83.5167 76.2667 83.25 76.6C83.05 76.8667 82.8833 77.1333 82.75 77.4C81.8833 78.4667 81.2167 79.2667 80.75 79.8C79.6833 81 78.65 81.9 77.65 82.5C76.9167 82.9667 76.2167 83.2667 75.55 83.4C74.55 83.6 73.75 83.4333 73.15 82.9C72.8167 82.7 72.5167 82.4 72.25 82C72.05 81.6667 71.8833 81.2667 71.75 80.8C71.4833 80.0667 71.3167 79.3 71.25 78.5ZM89.45 60.7C89.45 60.5667 89.4833 60.4 89.55 60.2C89.55 60.2 89.55 60.1667 89.55 60.1C88.35 64.2333 87.1833 67.5333 86.05 70C84.65 72.8667 83.0167 75.5 81.15 77.9C79.95 79.5 78.8167 80.6667 77.75 81.4C77.0167 81.9333 76.3167 82.3 75.65 82.5C75.25 82.5667 74.8833 82.5667 74.55 82.5C74.2167 82.5 73.9167 82.4 73.65 82.2C73.25 81.9333 72.9167 81.4333 72.65 80.7C72.45 80.0333 72.2833 79.3667 72.15 78.7C72.0167 77.5 72.0167 76.1667 72.15 74.7C72.4833 72.5667 73.05 70.3333 73.85 68C74.3833 66.5333 74.9833 65.0333 75.65 63.5C75.7167 63.4333 75.7833 63.3 75.85 63.1L76.35 62C76.35 62.0667 76.25 62.2333 76.05 62.5C75.7833 62.9 75.55 63.3333 75.35 63.8C74.6833 65.1333 74.05 66.6 73.45 68.2C72.65 70.6 72.1167 72.8333 71.85 74.9C71.7167 76.3667 71.7167 77.7 71.85 78.9C71.9833 79.5667 72.15 80.2 72.35 80.8C72.6833 81.6 73.05 82.1333 73.45 82.4C73.7833 82.6667 74.1833 82.8 74.65 82.8C74.85 82.8667 75.05 82.8667 75.25 82.8C75.45 82.8 75.65 82.7667 75.85 82.7C76.5167 82.5 77.2833 82.0667 78.15 81.4C79.2167 80.6 80.3833 79.3 81.65 77.5C83.5167 75.0333 85.15 72.2667 86.55 69.2C87.4833 67.0667 88.2833 64.8667 88.95 62.6C89.0167 62.4 89.0833 62.1667 89.15 61.9C89.2167 61.6333 89.25 61.4 89.25 61.2C89.3167 61 89.3833 60.8333 89.45 60.7Z" fill="#1C1C1C"/>
</svg>
