<svg width="96" height="96" viewBox="0 0 96 96" fill="none" xmlns="http://www.w3.org/2000/svg">
<path d="M71.7461 24.2568L95.2939 48L71.7461 71.7432L48 95.2939L24.2539 71.7432L0.705078 48L24.2539 24.2568L48 0.705078L71.7461 24.2568Z" stroke="#A8A8A8"/>
<path d="M0.667969 48.333H32.0013M95.3346 48.333H63.3346" stroke="#A8A8A8"/>
<g clip-path="url(#clip0_492_3936)">
<path d="M59.2136 43.812C59.022 43.6374 58.7953 43.5057 58.5487 43.4257C58.3021 43.3457 58.0413 43.3192 57.7836 43.348C51.1666 44.145 48.7306 49.411 47.8396 52.836L47.8336 52.835L47.8276 52.836C46.9376 49.41 44.5016 44.145 37.8836 43.348C37.626 43.3198 37.3654 43.3465 37.1189 43.4265C36.8724 43.5065 36.6456 43.6379 36.4536 43.812C36.0456 44.183 35.8186 44.712 35.8326 45.262H35.8346C35.9236 48.743 37.0296 51.48 39.1236 53.395C42.0256 56.049 45.9276 56.328 47.3346 56.336V58.835C47.3346 58.9676 47.3873 59.0947 47.4811 59.1885C47.5749 59.2823 47.702 59.335 47.8346 59.335C47.9673 59.335 48.0944 59.2823 48.1882 59.1885C48.282 59.0947 48.3346 58.9676 48.3346 58.835V56.336C49.7416 56.328 53.6446 56.049 56.5456 53.395C58.6396 51.48 59.7456 48.744 59.8346 45.263C59.8414 44.9907 59.7895 44.7202 59.6823 44.4698C59.5751 44.2194 59.4153 43.995 59.2136 43.812ZM39.7926 52.651C37.9106 50.926 36.9156 48.432 36.8346 45.237C36.8314 45.1083 36.856 44.9805 36.9068 44.8623C36.9575 44.7441 37.0332 44.6382 37.1286 44.552C37.2123 44.4711 37.3131 44.4101 37.4235 44.3736C37.534 44.3371 37.6513 44.3259 37.7666 44.341C45.7366 45.301 47.0786 53.201 47.2946 55.333C45.9786 55.311 42.3786 55.021 39.7926 52.651ZM55.8766 52.651C53.2896 55.021 49.6906 55.31 48.3746 55.333C48.5916 53.201 49.9336 45.301 57.9026 44.341C58.0179 44.3278 58.1347 44.3398 58.2449 44.3762C58.355 44.4127 58.456 44.4726 58.5406 44.552C58.6361 44.6384 58.7118 44.7445 58.7626 44.8629C58.8133 44.9812 58.8379 45.1092 58.8346 45.238C58.7536 48.433 57.7586 50.926 55.8766 52.651ZM43.4766 39.684C43.3842 39.5889 43.3334 39.461 43.3352 39.3284C43.3371 39.1958 43.3916 39.0694 43.4866 38.977L46.7786 35.77C47.0456 35.504 47.4126 35.335 47.8346 35.335C48.2566 35.335 48.6216 35.501 48.8956 35.774L52.1836 38.976C52.2726 39.0697 52.3219 39.1942 52.3211 39.3234C52.3203 39.4526 52.2695 39.5765 52.1794 39.6691C52.0892 39.7617 51.9668 39.8158 51.8376 39.82C51.7085 39.8243 51.5827 39.7784 51.4866 39.692L48.3356 36.623V44.835C48.3356 44.9676 48.283 45.0947 48.1892 45.1885C48.0954 45.2823 47.9683 45.335 47.8356 45.335C47.703 45.335 47.5759 45.2823 47.4821 45.1885C47.3883 45.0947 47.3356 44.9676 47.3356 44.835V36.624L44.1846 39.693C44.0896 39.7854 43.9617 39.8363 43.8291 39.8344C43.6965 39.8325 43.5701 39.778 43.4776 39.683L43.4766 39.684Z" fill="#1C1C1C"/>
</g>
<defs>
<clipPath id="clip0_492_3936">
<rect width="24" height="24" fill="white" transform="translate(35.834 35.335)"/>
</clipPath>
</defs>
</svg>
