<svg width="96" height="96" viewBox="0 0 96 96" fill="none" xmlns="http://www.w3.org/2000/svg">
<path d="M71.7461 24.2568L95.2939 48L71.7461 71.7432L48 95.2939L24.2539 71.7432L0.705078 48L24.2539 24.2568L48 0.705078L71.7461 24.2568Z" stroke="#8F8F8F"/>
<path d="M0.667969 48.333H29.0013M95.3346 48.333H66.3346" stroke="#8F8F8F"/>
<g clip-path="url(#clip0_492_3831)">
<path d="M59.8344 37.8345V45.8345C59.8344 45.9671 59.7817 46.0943 59.6879 46.188C59.5942 46.2818 59.467 46.3345 59.3344 46.3345C59.2018 46.3345 59.0746 46.2818 58.9808 46.188C58.8871 46.0943 58.8344 45.9671 58.8344 45.8345V37.8345C58.8344 37.6035 58.7774 37.3875 58.6844 37.1925L36.6884 59.1885C36.6421 59.2353 36.5869 59.2724 36.5262 59.2978C36.4654 59.3232 36.4002 59.3362 36.3344 59.3362C36.2685 59.3362 36.2033 59.3232 36.1426 59.2978C36.0818 59.2724 36.0267 59.2353 35.9804 59.1885C35.8866 59.0947 35.834 58.9676 35.834 58.835C35.834 58.7024 35.8866 58.5752 35.9804 58.4815L57.9774 36.4845C57.7771 36.3867 57.5573 36.3354 57.3344 36.3345H49.3344C49.2018 36.3345 49.0746 36.2818 48.9808 36.188C48.8871 36.0943 48.8344 35.9671 48.8344 35.8345C48.8344 35.7019 48.8871 35.5747 48.9808 35.4809C49.0746 35.3872 49.2018 35.3345 49.3344 35.3345H57.3344C58.7124 35.3345 59.8344 36.4555 59.8344 37.8345ZM37.8344 40.8345C37.8344 38.9045 39.4044 37.3345 41.3344 37.3345C43.2644 37.3345 44.8344 38.9045 44.8344 40.8345C44.8344 42.7645 43.2644 44.3345 41.3344 44.3345C39.4044 44.3345 37.8344 42.7645 37.8344 40.8345ZM38.8344 40.8345C38.8344 42.2135 39.9564 43.3345 41.3344 43.3345C42.7124 43.3345 43.8344 42.2135 43.8344 40.8345C43.8344 39.4555 42.7124 38.3345 41.3344 38.3345C39.9564 38.3345 38.8344 39.4555 38.8344 40.8345ZM57.8344 53.8345C57.8344 55.7645 56.2644 57.3345 54.3344 57.3345C52.4044 57.3345 50.8344 55.7645 50.8344 53.8345C50.8344 51.9045 52.4044 50.3345 54.3344 50.3345C56.2644 50.3345 57.8344 51.9045 57.8344 53.8345ZM56.8344 53.8345C56.8344 52.4555 55.7124 51.3345 54.3344 51.3345C52.9564 51.3345 51.8344 52.4555 51.8344 53.8345C51.8344 55.2135 52.9564 56.3345 54.3344 56.3345C55.7124 56.3345 56.8344 55.2135 56.8344 53.8345Z" fill="#1C1C1C"/>
</g>
<defs>
<clipPath id="clip0_492_3831">
<rect width="24" height="24" fill="white" transform="translate(35.834 35.3345)"/>
</clipPath>
</defs>
</svg>
