<svg width="96" height="96" viewBox="0 0 96 96" fill="none" xmlns="http://www.w3.org/2000/svg">
<rect x="6.5" y="6.5" width="83" height="83" stroke="#8F8F8F"/>
<g clip-path="url(#clip0_492_3850)">
<path d="M53.5 36H42.5C41.3069 36.0013 40.1631 36.4759 39.3195 37.3195C38.4759 38.1631 38.0013 39.3069 38 40.5V56.5C38 57.607 38.507 58.626 39.392 59.294C39.4441 59.3363 39.5042 59.3677 39.5686 59.3863C39.6331 59.4049 39.7007 59.4103 39.7673 59.4022C39.8339 59.3942 39.8983 59.3728 39.9564 59.3393C40.0146 59.3059 40.0655 59.2611 40.1059 59.2076C40.1464 59.154 40.1757 59.0929 40.1921 59.0278C40.2085 58.9628 40.2116 58.895 40.2012 58.8287C40.1909 58.7624 40.1673 58.6989 40.1318 58.6419C40.0964 58.5849 40.0499 58.5356 39.995 58.497C39.5774 58.1809 39.2695 57.7417 39.1147 57.2413C38.9599 56.741 38.9661 56.2046 39.1323 55.7079C39.2985 55.2113 39.6164 54.7793 40.0412 54.4728C40.466 54.1664 40.9762 54.001 41.5 54H42V58.848C42 59.35 42.308 59.778 42.783 59.939C43.0107 60.019 43.258 60.0241 43.4888 59.9535C43.7196 59.883 43.9219 59.7406 44.066 59.547L45 58.324L45.934 59.547C46.239 59.946 46.743 60.099 47.217 59.939C47.693 59.778 48 59.35 48 58.848V54H57V55.5C57 57.43 55.43 59 53.5 59H50.577C50.4444 59 50.3172 59.0527 50.2234 59.1464C50.1297 59.2402 50.077 59.3674 50.077 59.5C50.077 59.6326 50.1297 59.7598 50.2234 59.8536C50.3172 59.9473 50.4444 60 50.577 60H53.5C55.981 60 58 57.981 58 55.5V40.5C58 38.019 55.981 36 53.5 36ZM39 54.053V40.5C39.0011 39.6587 39.3047 38.8458 39.8555 38.2098C40.4063 37.5739 41.1675 37.1572 42 37.036V53H41.5C40.522 53 39.636 53.404 39 54.053ZM47 58.847C47 58.937 46.944 58.975 46.896 58.991C46.8663 59.0032 46.8333 59.0047 46.8026 58.9952C46.772 58.9857 46.7456 58.9659 46.728 58.939L45.397 57.196C45.3484 57.1378 45.2876 57.091 45.2189 57.0589C45.1502 57.0268 45.0753 57.0101 44.9995 57.0101C44.9237 57.0101 44.8488 57.0268 44.7801 57.0589C44.7114 57.091 44.6506 57.1378 44.602 57.196L43.271 58.939C43.2535 58.966 43.2272 58.986 43.1964 58.9955C43.1657 59.005 43.1327 59.0034 43.103 58.991C43.0718 58.9826 43.0444 58.9637 43.0255 58.9374C43.0065 58.9112 42.9972 58.8793 42.999 58.847V53.999H46.999V58.847H47ZM43 52.999V37H53.5C55.43 37 57 38.57 57 40.5V53L43 52.999Z" fill="#1C1C1C"/>
</g>
<defs>
<clipPath id="clip0_492_3850">
<rect width="24" height="24" fill="white" transform="translate(36 36)"/>
</clipPath>
</defs>
</svg>
