<svg width="96" height="96" viewBox="0 0 96 96" fill="none" xmlns="http://www.w3.org/2000/svg">
<path d="M71.7461 24.2568L95.2939 48L71.7461 71.7432L48 95.2939L24.2539 71.7432L0.705078 48L24.2539 24.2568L48 0.705078L71.7461 24.2568Z" stroke="#8F8F8F"/>
<path d="M47.9961 95.6704L47.9961 67.3371M47.9961 1.00375L47.9961 30.0037" stroke="#8F8F8F"/>
<g clip-path="url(#clip0_492_3877)">
<path d="M59.2434 49.8277L57.0004 52.0707V54.5007C57.0004 55.8797 55.8794 57.0007 54.5004 57.0007H52.0704L49.8274 59.2437C49.3234 59.7477 48.6624 59.9997 48.0004 59.9997C47.3384 59.9997 46.6774 59.7477 46.1734 59.2437L43.9304 57.0007H41.5004C40.8375 57.0001 40.2019 56.7366 39.7332 56.2678C39.2645 55.7991 39.0009 55.1635 39.0004 54.5007V52.0707L36.7574 49.8277C36.2736 49.3427 36.002 48.6856 36.002 48.0007C36.002 47.3157 36.2736 46.6586 36.7574 46.1737L39.0004 43.9307V41.5007C39.0004 40.1227 40.1214 39.0007 41.5004 39.0007H43.9304L46.1734 36.7577C47.1484 35.7807 48.8534 35.7807 49.8274 36.7577L52.0704 39.0007H54.5004C54.9394 39.0007 55.3714 39.1167 55.7504 39.3347C55.8643 39.4014 55.9472 39.5105 55.9809 39.6382C56.0147 39.7658 55.9965 39.9017 55.9305 40.016C55.8645 40.1303 55.7559 40.2139 55.6285 40.2485C55.5011 40.2831 55.3652 40.2659 55.2504 40.2007C55.0223 40.0692 54.7637 39.9999 54.5004 39.9997H51.8634C51.7308 39.9995 51.6036 39.947 51.5094 39.8537L49.1194 37.4637C48.5214 36.8647 47.4764 36.8647 46.8794 37.4637L44.4894 39.8537C44.4429 39.9001 44.3877 39.9368 44.3269 39.9619C44.2662 39.9869 44.2011 39.9998 44.1354 39.9997H41.4984C40.6714 39.9997 39.9984 40.6727 39.9984 41.4997V44.1367C39.9984 44.2697 39.9454 44.3967 39.8524 44.4907L37.4624 46.8807C37.1661 47.1781 36.9997 47.5808 36.9997 48.0007C36.9997 48.4205 37.1661 48.8232 37.4624 49.1207L39.8524 51.5107C39.8988 51.5572 39.9356 51.6124 39.9606 51.6731C39.9857 51.7339 39.9985 51.7989 39.9984 51.8647V54.5017C39.9984 55.3287 40.6714 56.0017 41.4984 56.0017H44.1354C44.2684 56.0017 44.3954 56.0547 44.4894 56.1477L46.8794 58.5377C47.4774 59.1357 48.5224 59.1357 49.1194 58.5377L51.5094 56.1477C51.5559 56.1012 51.6111 56.0645 51.6719 56.0394C51.7326 56.0144 51.7977 56.0015 51.8634 56.0017H54.5004C55.3274 56.0017 56.0004 55.3287 56.0004 54.5017V51.8647C56.0004 51.7317 56.0534 51.6047 56.1464 51.5107L58.5364 49.1207C58.8327 48.8232 58.999 48.4205 58.999 48.0007C58.999 47.5808 58.8327 47.1781 58.5364 46.8807L57.6464 45.9907C57.5553 45.8964 57.5049 45.7701 57.506 45.639C57.5072 45.5079 57.5598 45.3824 57.6525 45.2897C57.7452 45.197 57.8706 45.1445 58.0017 45.1433C58.1328 45.1422 58.2591 45.1926 58.3534 45.2837L59.2434 46.1737C59.7271 46.6586 59.9988 47.3157 59.9988 48.0007C59.9988 48.6856 59.7271 49.3427 59.2434 49.8277ZM46.8794 49.5207L43.8524 46.5257C43.806 46.4782 43.7506 46.4405 43.6895 46.4147C43.6283 46.3889 43.5627 46.3755 43.4963 46.3754C43.43 46.3752 43.3642 46.3882 43.303 46.4137C43.2417 46.4392 43.1861 46.4766 43.1395 46.5238C43.0928 46.571 43.056 46.627 43.0313 46.6886C43.0065 46.7501 42.9942 46.816 42.9951 46.8823C42.996 46.9487 43.0101 47.0142 43.0366 47.075C43.0631 47.1358 43.1014 47.1908 43.1494 47.2367L46.1764 50.2317C46.6924 50.7427 47.3684 50.9977 48.0454 50.9977C48.7224 50.9977 49.4024 50.7407 49.9184 50.2277L58.8534 41.3507C58.9448 41.2566 58.9956 41.1304 58.9948 40.9993C58.994 40.8682 58.9418 40.7426 58.8494 40.6496C58.7569 40.5567 58.6316 40.5037 58.5005 40.5022C58.3694 40.5007 58.2429 40.5508 58.1484 40.6417L49.2134 49.5187C48.9027 49.8256 48.4836 49.9979 48.0468 49.9983C47.61 49.9987 47.1906 49.8271 46.8794 49.5207Z" fill="#1C1C1C"/>
</g>
<defs>
<clipPath id="clip0_492_3877">
<rect width="24" height="24" fill="white" transform="translate(36 36.0005)"/>
</clipPath>
</defs>
</svg>
