<svg width="96" height="96" viewBox="0 0 96 96" fill="none" xmlns="http://www.w3.org/2000/svg">
<circle cx="48" cy="48" r="47.5" stroke="#8F8F8F"/>
<g clip-path="url(#clip0_492_3841)">
<path d="M59.204 42.196C58.705 41.919 58.117 41.935 57.599 42.262L52 46.495V43.547C52 42.977 51.702 42.472 51.204 42.195C50.9585 42.0579 50.6801 41.9907 50.399 42.0007C50.118 42.0108 49.8451 42.0977 49.61 42.252L44 46.24V37H44.5C44.6326 37 44.7598 36.9473 44.8536 36.8536C44.9473 36.7598 45 36.6326 45 36.5C45 36.3674 44.9473 36.2402 44.8536 36.1464C44.7598 36.0527 44.6326 36 44.5 36H36.5C36.3674 36 36.2402 36.0527 36.1464 36.1464C36.0527 36.2402 36 36.3674 36 36.5C36 36.6326 36.0527 36.7598 36.1464 36.8536C36.2402 36.9473 36.3674 37 36.5 37H37V55.5C37 57.981 39.019 60 41.5 60H55.5C57.981 60 60 57.981 60 55.5V43.547C60 42.977 59.702 42.473 59.204 42.196ZM59 55.5C59 57.43 57.43 59 55.5 59H41.5C39.57 59 38 57.43 38 55.5V37H43V55.5C43 55.6326 43.0527 55.7598 43.1464 55.8536C43.2402 55.9473 43.3674 56 43.5 56C43.6326 56 43.7598 55.9473 43.8536 55.8536C43.9473 55.7598 44 55.6326 44 55.5V47.469L50.165 43.085C50.2471 43.032 50.3423 43.0026 50.44 43.0002C50.5378 42.9977 50.6343 43.0222 50.719 43.071C50.805 43.1172 50.8766 43.1861 50.9261 43.2702C50.9757 43.3543 51.0012 43.4504 51 43.548V47.501C51 47.5939 51.026 47.685 51.0749 47.764C51.1239 47.8431 51.1939 47.9069 51.2771 47.9483C51.3603 47.9897 51.4534 48.0072 51.5459 47.9986C51.6384 47.9901 51.7268 47.9559 51.801 47.9L58.164 43.086C58.2461 43.033 58.3413 43.0036 58.439 43.0012C58.5368 42.9987 58.6333 43.0232 58.718 43.072C58.804 43.1182 58.8756 43.1871 58.9251 43.2712C58.9747 43.3553 59.0002 43.4514 58.999 43.549V55.502L59 55.5ZM49.5 52H48.5C47.673 52 47 52.673 47 53.5V54.5C47 55.327 47.673 56 48.5 56H49.5C50.327 56 51 55.327 51 54.5V53.5C51 52.673 50.327 52 49.5 52ZM50 54.5C50 54.6326 49.9473 54.7598 49.8536 54.8536C49.7598 54.9473 49.6326 55 49.5 55H48.5C48.3674 55 48.2402 54.9473 48.1464 54.8536C48.0527 54.7598 48 54.6326 48 54.5V53.5C48 53.3674 48.0527 53.2402 48.1464 53.1464C48.2402 53.0527 48.3674 53 48.5 53H49.5C49.6326 53 49.7598 53.0527 49.8536 53.1464C49.9473 53.2402 50 53.3674 50 53.5V54.5ZM55.5 52H54.5C53.673 52 53 52.673 53 53.5V54.5C53 55.327 53.673 56 54.5 56H55.5C56.327 56 57 55.327 57 54.5V53.5C57 52.673 56.327 52 55.5 52ZM56 54.5C56 54.6326 55.9473 54.7598 55.8536 54.8536C55.7598 54.9473 55.6326 55 55.5 55H54.5C54.3674 55 54.2402 54.9473 54.1464 54.8536C54.0527 54.7598 54 54.6326 54 54.5V53.5C54 53.3674 54.0527 53.2402 54.1464 53.1464C54.2402 53.0527 54.3674 53 54.5 53H55.5C55.6326 53 55.7598 53.0527 55.8536 53.1464C55.9473 53.2402 56 53.3674 56 53.5V54.5Z" fill="#1C1C1C"/>
</g>
<defs>
<clipPath id="clip0_492_3841">
<rect width="24" height="24" fill="white" transform="translate(36 36)"/>
</clipPath>
</defs>
</svg>
