<svg width="83" height="96" viewBox="0 0 83 96" fill="none" xmlns="http://www.w3.org/2000/svg">
<path d="M82.5 24.2871V71.7119L41.5 95.4219L0.5 71.7119V24.2871L41.5 0.577148L82.5 24.2871Z" stroke="#A8A8A8"/>
<g clip-path="url(#clip0_492_3926)">
<path d="M51.5807 37.0886C51.0549 36.6482 50.4384 36.3291 49.7752 36.1542C49.1119 35.9793 48.4183 35.9528 47.7437 36.0766L43.7487 36.8036C43.2339 36.8969 42.7453 37.1004 42.3164 37.4C41.8875 37.6996 41.5284 38.0884 41.2637 38.5396C40.999 38.0881 40.6398 37.6992 40.2107 37.3996C39.7816 37.0999 39.2927 36.8966 38.7777 36.8036L34.7827 36.0766C34.108 35.9534 33.4145 35.9802 32.7514 36.1551C32.0883 36.33 31.4718 36.6487 30.9457 37.0886C30.4185 37.5276 29.9945 38.0772 29.7038 38.6986C29.413 39.3199 29.2628 39.9977 29.2637 40.6836V52.0576C29.2637 54.3206 30.8807 56.2576 33.1077 56.6636L39.6777 57.8576C40.726 58.0491 41.8003 58.0491 42.8487 57.8576L49.4187 56.6636C50.4974 56.4676 51.4731 55.8991 52.1755 55.0574C52.878 54.2156 53.2628 53.154 53.2627 52.0576V40.6836C53.2634 39.9976 53.113 39.3198 52.8221 38.6984C52.5313 38.0771 52.108 37.5275 51.5807 37.0886ZM40.7637 56.9846C40.4595 56.9645 40.1567 56.9274 39.8567 56.8736L33.2867 55.6796C32.4383 55.5257 31.6709 55.0788 31.1184 54.4168C30.5659 53.7548 30.2634 52.9199 30.2637 52.0576V40.6836C30.2637 39.5886 30.7457 38.5586 31.5867 37.8566C32.0003 37.5107 32.4851 37.2602 33.0066 37.123C33.528 36.9858 34.0733 36.9652 34.6037 37.0626L38.5987 37.7896C39.2062 37.9 39.7558 38.2201 40.1514 38.6942C40.5471 39.1682 40.7638 39.7662 40.7637 40.3836V56.9876V56.9846ZM52.2637 52.0566C52.2639 52.9189 51.9614 53.7538 51.4089 54.4158C50.8564 55.0778 50.0891 55.5247 49.2407 55.6786L42.6717 56.8726C42.3718 56.9274 42.0689 56.9645 41.7647 56.9836V40.3816C41.7647 39.1076 42.6747 38.0166 43.9297 37.7876L47.9247 37.0606C48.4552 36.9639 49.0004 36.985 49.5218 37.1226C50.0432 37.2601 50.528 37.5107 50.9417 37.8566C51.3563 38.2015 51.6899 38.6335 51.9186 39.122C52.1472 39.6104 52.2654 40.1433 52.2647 40.6826L52.2637 52.0566Z" fill="#1C1C1C"/>
</g>
<defs>
<clipPath id="clip0_492_3926">
<rect width="24" height="24" fill="white" transform="translate(29.2637 35.001)"/>
</clipPath>
</defs>
</svg>
