<svg width="184" height="30" viewBox="0 0 184 30" fill="none" xmlns="http://www.w3.org/2000/svg">
<path fill-rule="evenodd" clip-rule="evenodd" d="M18.6206 0.0380141C16.6744 0.265614 15.2474 1.02761 14.5534 2.20982C14.1792 2.84752 13.9753 3.86821 14.072 4.62044C14.1899 5.53726 14.4695 6.12387 15.0629 6.69913C15.5247 7.14683 15.8301 7.3285 16.48 7.54205C17.3013 7.81195 17.5828 7.85965 19.8155 8.10758C21.5517 8.30033 22.5526 8.46296 22.8165 8.59512C23.3129 8.84385 23.4974 9.34418 23.3074 9.92656C23.2033 10.2456 22.7026 10.7569 22.2927 10.9627C21.7526 11.234 21.2115 11.35 20.3596 11.377C19.8934 11.3918 19.4424 11.3794 19.1726 11.3442C17.9407 11.1837 16.3458 10.5929 15.7269 10.0678L15.4685 9.84848L15.4145 9.97891C15.3627 10.1039 14.9059 11.1337 14.5879 11.8423L14.4367 12.1792L14.5718 12.2515C14.6462 12.2913 15.0857 12.4819 15.5485 12.675C17.2757 13.3956 18.3044 13.6028 20.1222 13.5961C21.1448 13.5923 22.0169 13.4973 22.6552 13.3201C23.516 13.0812 24.4111 12.6484 24.9077 12.231C25.3928 11.8233 25.9217 10.9391 26.1071 10.2257C26.2259 9.76839 26.2166 8.9136 26.0875 8.44053C25.6951 7.00197 24.6329 6.07291 22.8876 5.64159C22.4127 5.52427 22.2436 5.50147 20.1222 5.26866C18.4239 5.08229 17.7599 4.97535 17.3853 4.82784C16.5215 4.48753 16.4659 3.53284 17.2717 2.87372C17.6116 2.59563 17.7967 2.51052 18.2902 2.4054C20.1135 2.01703 22.2526 2.36631 23.5433 3.26312C23.8324 3.46397 23.8586 3.47346 23.9144 3.39728C23.9474 3.35219 24.1325 2.99076 24.3256 2.59405C24.5189 2.19735 24.7492 1.74112 24.8374 1.58021C24.9979 1.28774 24.998 1.2876 24.8983 1.24837C24.8435 1.22683 24.5761 1.11538 24.304 1.00072C23.5179 0.669439 22.8213 0.441467 21.9389 0.226804C21.1658 0.0387121 19.4496 -0.0589169 18.6206 0.0380141ZM83.8837 0.0363389C83.2392 0.103674 82.676 0.211401 81.9277 0.410522C80.6856 0.741008 79.5926 1.37536 78.7317 2.26533C78.0427 2.97763 77.6424 3.61036 77.2766 4.56562C76.799 5.81279 76.7731 7.44526 77.2096 8.80239C77.7575 10.5056 78.819 11.7437 80.4957 12.6349C81.8245 13.3411 83.0284 13.5936 85.0753 13.5951C87.0191 13.5967 87.8245 13.4371 89.401 12.738C89.9657 12.4876 91.1906 11.8355 91.1906 11.7853C91.1906 11.7589 91.0991 11.6224 90.9873 11.4818C90.8754 11.3412 90.7287 11.1425 90.6613 11.0402C90.4007 10.6451 89.9669 10.0395 89.9444 10.0395C89.9315 10.0395 89.8025 10.114 89.6577 10.2049C88.9919 10.6236 87.9005 11.0582 87.0313 11.251C86.3885 11.3935 84.9821 11.4303 84.2765 11.323C83.596 11.2196 83.0752 11.06 82.5347 10.7891C81.9477 10.495 81.6437 10.2778 81.2244 9.85271C80.6782 9.29895 80.2796 8.5893 80.1012 7.85243C79.973 7.32324 79.9825 6.1919 80.1192 5.6984C80.5203 4.251 81.5104 3.18983 83.0022 2.60871C83.6673 2.34961 85.1207 2.18567 86.0291 2.26729C87.3514 2.38614 88.1446 2.61378 89.2209 3.18346C89.6057 3.38709 89.9075 3.52055 89.929 3.49663C89.9497 3.47369 90.2318 3.07145 90.5559 2.60271L91.1453 1.75052L90.235 1.29272C89.1846 0.764601 88.9354 0.655897 88.3248 0.459569C87.3037 0.131269 86.6658 0.0362458 85.3226 0.0124202C84.7538 0.00232228 84.1063 0.0131182 83.8837 0.0363389ZM138.809 0.0376418C136.833 0.264311 135.539 0.954136 134.754 2.19851C133.802 3.70874 134.092 5.78398 135.408 6.88126C135.761 7.17596 136.115 7.36368 136.67 7.55187C137.41 7.80273 137.8 7.8636 140.855 8.20363C141.656 8.29274 142.548 8.44202 142.819 8.53211C143.102 8.62635 143.415 8.91886 143.511 9.1795C143.702 9.69808 143.391 10.3607 142.754 10.7879C141.717 11.4842 139.849 11.5908 138.027 11.0579C137.091 10.7838 136.375 10.4508 135.939 10.0854C135.782 9.95411 135.647 9.85346 135.639 9.86174C135.631 9.86998 135.503 10.1594 135.355 10.5049C135.207 10.8504 134.983 11.3611 134.857 11.6398C134.731 11.9185 134.628 12.1607 134.628 12.178C134.628 12.1953 134.744 12.2582 134.886 12.3177C135.028 12.3772 135.398 12.5359 135.707 12.6703C137.29 13.359 138.423 13.5923 140.203 13.5969C141.73 13.6009 142.642 13.4489 143.73 13.0094C144.922 12.5281 145.823 11.6338 146.136 10.6222C146.479 9.51557 146.404 8.54589 145.901 7.55843C145.458 6.68852 144.442 5.99487 143.099 5.6447C142.761 5.5568 141.793 5.42562 140.338 5.27099C138.37 5.06168 137.807 4.96321 137.421 4.76074C136.893 4.48372 136.741 3.93601 137.029 3.34758C137.384 2.62309 138.375 2.25719 139.979 2.25914C141.481 2.26101 142.603 2.56004 143.704 3.252C143.861 3.35084 144.007 3.43167 144.028 3.43167C144.049 3.43167 144.175 3.21705 144.309 2.95469C144.442 2.69233 144.688 2.20931 144.855 1.88129C145.022 1.55322 145.151 1.27964 145.143 1.27331C145.11 1.24921 143.811 0.730119 143.553 0.638074C143.095 0.474367 141.958 0.185063 141.462 0.105768C140.897 0.015445 139.35 -0.0242954 138.809 0.0376418ZM159.629 0.0162826C158.622 0.108421 157.355 0.382089 156.634 0.662877C156.247 0.813695 155.691 1.12617 155.175 1.48365C154.239 2.13122 153.33 3.30817 152.943 4.37101C152.342 6.02461 152.331 7.50906 152.908 9.1151C153.111 9.67821 153.339 10.1302 153.597 10.4816C154.041 11.0845 154.194 11.2676 154.457 11.5071C154.618 11.6535 154.813 11.8317 154.891 11.9031C155.297 12.2776 155.959 12.663 156.761 12.9922C157.84 13.4352 158.776 13.5909 160.393 13.5961C162.403 13.6027 163.587 13.3541 164.957 12.638C165.464 12.373 165.549 12.3153 165.991 11.9436C167.286 10.8546 168.127 9.4037 168.377 7.82907C168.468 7.25884 168.444 6.11196 168.331 5.54898C168.057 4.19204 167.49 3.13352 166.517 2.16738C165.367 1.02552 164.024 0.399679 162.079 0.100463C161.644 0.0335933 160.041 -0.0215033 159.629 0.0162826ZM0 13.4369L12.3431 13.4133L12.3673 11.2499L2.58553 11.2262V7.64303L9.30792 7.61916V5.52632L2.58553 5.50245L2.56184 2.40791H11.2658L11.7932 1.34274C12.0833 0.756877 12.3206 0.264776 12.3206 0.249187C12.3206 0.233551 9.54848 0.220801 6.16031 0.220801H0V13.4369ZM26.4489 0.255702C26.8571 1.11631 27.4347 2.28897 27.4754 2.33984C27.522 2.39782 27.8454 2.40791 29.6604 2.40791H31.7908V13.4378L34.826 13.4133L34.8488 2.4088L39.1273 2.38465L39.64 1.36089C39.922 0.797827 40.1531 0.310985 40.1535 0.278969C40.1543 0.232667 38.7527 0.220801 33.2934 0.220801C29.5199 0.220801 26.4398 0.23653 26.4489 0.255702ZM42.1105 13.4133L54.8583 13.4369V11.2499L45.1232 11.2262V7.64303L51.8456 7.61916V5.52632L45.1232 5.50245L45.0995 2.40838L53.8016 2.38465L54.31 1.36089C54.5895 0.797827 54.8294 0.310985 54.8431 0.278969C54.8628 0.232574 53.5731 0.220801 48.4778 0.220801H42.0877L42.1105 13.4133ZM56.4845 0.256121C56.4928 0.275572 56.7268 0.767673 57.0046 1.34968L57.5097 2.40791H61.828V13.4366H64.8407V2.40791H69.1569L69.6743 1.33414C69.9588 0.743521 70.1916 0.251421 70.1916 0.240578C70.1916 0.229689 67.1042 0.220801 63.3306 0.220801C59.557 0.220801 56.4763 0.236716 56.4845 0.256121ZM72.0577 13.4133L74.6432 13.438V0.220801H72.0349L72.0577 13.4133ZM98.3034 0.372038C98.2545 0.455241 98.0332 0.889732 97.8117 1.33763C97.5902 1.78552 97.2239 2.51308 96.9977 2.95446C96.7716 3.39584 96.5865 3.77365 96.5865 3.79403C96.5865 3.81442 96.4884 4.00823 96.3686 4.22471C96.2487 4.44119 95.9476 5.02664 95.6996 5.52572C95.4515 6.0248 95.0003 6.92524 94.697 7.52669C93.6436 9.61534 93.1804 10.5343 92.6211 11.645C92.3118 12.2592 91.9848 12.8996 91.8945 13.0681C91.8041 13.2366 91.7437 13.3885 91.7602 13.4055C91.7767 13.4226 92.4309 13.4366 93.2141 13.4366H94.638L95.0951 12.5371C95.3466 12.0424 95.5523 11.6217 95.5523 11.6021C95.5523 11.5825 95.7294 11.2231 95.9458 10.8035L96.3392 10.0403L102.634 10.0397L102.959 10.6564C103.138 10.9955 103.403 11.5137 103.547 11.808C103.692 12.1022 103.937 12.5891 104.091 12.8898L104.372 13.4366H106.055C106.981 13.4366 107.738 13.4309 107.738 13.424C107.738 13.3995 107.008 11.9628 106.728 11.4356C106.457 10.9258 105.729 9.53069 105.345 8.78312C105.016 8.14392 104.491 7.13697 104.229 6.64254C104.087 6.3738 103.799 5.81888 103.59 5.40938C103.38 4.99988 103.053 4.37166 102.862 4.01335C102.672 3.65504 102.489 3.29653 102.456 3.21664C102.423 3.13678 102.276 2.85409 102.128 2.58842C101.981 2.3228 101.734 1.85416 101.58 1.54703C101.425 1.2399 101.205 0.815929 101.09 0.604849L100.881 0.221127L98.3925 0.220801L98.3034 0.372038ZM114.213 3.1641C115.001 4.78293 116.132 7.10207 116.727 8.31778C117.322 9.53349 118.126 11.1829 118.514 11.9831L119.221 13.438L121.647 13.4133L122.566 11.5286C123.667 9.26894 125.312 5.90097 126.899 2.65939C127.539 1.35168 128.063 0.267987 128.063 0.251234C128.063 0.234482 127.37 0.220894 126.522 0.220987L124.982 0.221173L124.14 1.97766C123.677 2.94371 122.826 4.72882 122.249 5.94452C121.672 7.16023 121.047 8.46883 120.86 8.85246L120.519 9.55005L118.928 6.22327C118.053 4.39358 117.054 2.2953 116.708 1.56048L116.079 0.224431L112.78 0.220801L114.213 3.1641ZM129.479 13.4133H132.042L132.065 0.220801H129.456L129.479 13.4133ZM148.072 13.438L150.658 13.4133L150.681 0.220801H148.072V13.438ZM159.853 2.27003C159.367 2.31922 158.677 2.46846 158.39 2.58642C157.795 2.83045 157.164 3.28439 156.68 3.81637C156.262 4.27655 156.071 4.5894 155.868 5.15116C155.493 6.18353 155.487 7.3023 155.85 8.43123C156.033 8.9995 156.257 9.35196 156.79 9.91372C157.43 10.5894 158.074 10.9695 159.03 11.2373C159.445 11.3535 159.53 11.3609 160.46 11.3609C161.386 11.3609 161.478 11.3531 161.883 11.2394C162.885 10.9585 163.409 10.6452 164.129 9.89599C164.591 9.41631 164.675 9.30393 164.857 8.91737C164.971 8.67716 165.119 8.29218 165.188 8.06184C165.301 7.67723 165.312 7.57844 165.314 6.85194C165.317 5.94839 165.263 5.64442 164.974 4.94604C164.76 4.42946 164.548 4.1027 164.168 3.70711C163.665 3.18388 162.79 2.64282 162.189 2.48377C161.466 2.29237 160.503 2.20428 159.853 2.27003ZM99.4846 3.62107C99.4626 3.65769 98.9527 4.70322 98.3514 5.94452L97.2582 8.20144L98.3838 8.21387C99.0028 8.22071 100.015 8.22071 100.633 8.21387L101.756 8.20144L100.64 5.87798C99.8434 4.21852 99.5132 3.57355 99.4846 3.62107ZM79.2522 21.8844C79.0791 21.9227 78.725 22.0612 78.4653 22.1921C78.0494 22.4017 77.945 22.4805 77.5885 22.8543C77.0736 23.3941 76.8352 23.8198 76.6507 24.5287C76.5253 25.0104 76.5156 25.1058 76.5125 25.8845C76.5095 26.6622 76.5185 26.7587 76.6381 27.234C76.791 27.8421 76.9522 28.1898 77.2755 28.609C77.6372 29.0782 77.9906 29.381 78.4428 29.6092C79.023 29.9021 79.3519 29.9745 80.1066 29.9759C80.8375 29.9773 81.1983 29.8937 81.8376 29.5747C82.1509 29.4184 82.2886 29.3116 82.602 28.9818C83.2542 28.2957 83.5554 27.6322 83.6697 26.6297C83.7278 26.1196 83.7302 25.9224 83.6846 25.3793C83.6041 24.42 83.4236 23.8999 82.9411 23.2364C82.4977 22.6267 81.9727 22.2317 81.2831 21.9891C80.9096 21.8576 80.8099 21.8427 80.219 21.8294C79.7621 21.8192 79.4728 21.8356 79.2522 21.8844ZM86.9755 21.864C86.7964 21.8856 86.4931 21.9577 86.3014 22.0243C85.2668 22.3837 84.7155 23.1213 84.7155 24.1463C84.7155 25.0056 85.1479 25.6036 86.0211 25.9521C86.4133 26.1086 87.4192 26.4108 87.9531 26.5325C88.6254 26.6857 89.0538 26.936 89.2197 27.2727C89.3584 27.554 89.3233 28.0213 89.1433 28.2906C88.956 28.5708 88.5473 28.7773 88.0418 28.8471C87.3898 28.9372 86.6056 28.7464 86.2121 28.4019C86.028 28.2408 85.8092 27.7711 85.7709 27.455L85.7413 27.2107H84.4353L84.4676 27.5248C84.5091 27.9291 84.6774 28.4799 84.8409 28.7464C85.1479 29.2469 85.8117 29.6747 86.5816 29.8683C87.1223 30.0042 88.0398 30.0153 88.5549 29.8923C89.1747 29.7441 89.6371 29.5133 89.975 29.1835C90.4731 28.6972 90.6323 28.2317 90.596 27.3668C90.571 26.7694 90.454 26.496 90.0632 26.1215C89.6817 25.7559 89.3135 25.5951 87.986 25.2144C86.6286 24.825 86.3725 24.7319 86.1857 24.5591C86.063 24.4457 86.0449 24.3959 86.0284 24.1269C86.0181 23.9597 86.0336 23.7479 86.0628 23.6562C86.1194 23.4788 86.3845 23.2144 86.6234 23.0971C87.0299 22.8975 87.8386 22.909 88.3152 23.1212C88.684 23.2854 88.9509 23.6575 89.0257 24.1119L89.0571 24.3023L90.3363 24.3281V24.1273C90.3363 23.6659 90.0784 23.0145 89.7608 22.6739C89.3615 22.2456 88.7059 21.9481 87.969 21.8607C87.5237 21.8079 87.4391 21.8082 86.9755 21.864ZM94.4282 21.8421C92.9444 22.1384 91.8567 23.2236 91.5424 24.7211C91.4646 25.092 91.4449 25.3376 91.4458 25.931C91.4475 27.1773 91.6651 27.9482 92.2151 28.6568C92.7182 29.305 93.2151 29.651 93.9593 29.8715C94.4725 30.0236 95.4184 30.0234 95.932 29.8713C96.7389 29.6322 97.3932 29.1314 97.7679 28.466C97.9628 28.1201 98.1805 27.4509 98.2259 27.0583L98.257 26.7894L96.884 26.8152L96.8298 27.1177C96.7552 27.5343 96.5657 28.0024 96.3816 28.225C95.8568 28.8595 94.6801 28.9866 93.8714 28.4961C93.409 28.2157 92.9986 27.5181 92.8454 26.752C92.7391 26.2207 92.7528 25.3229 92.8744 24.8607C93.1097 23.9656 93.6098 23.37 94.3407 23.1146C94.5814 23.0305 94.7068 23.0163 95.0802 23.0309C95.4691 23.046 95.57 23.0679 95.8276 23.1931C96.2403 23.3938 96.4805 23.6327 96.6609 24.0218C96.7437 24.2002 96.8113 24.373 96.8113 24.4057C96.8113 24.4514 96.9683 24.4652 97.4858 24.4652C98.2645 24.4652 98.2227 24.5009 98.0664 23.9698C97.7778 22.9889 96.9678 22.2121 95.9345 21.9254C95.67 21.852 94.6586 21.796 94.4282 21.8421ZM101.896 21.8633C100.766 22.0927 99.8496 22.8593 99.3886 23.9601C99.0979 24.6544 99.0444 24.9512 99.0414 25.8845C99.0391 26.5966 99.0533 26.7814 99.136 27.1177C99.2572 27.61 99.5015 28.1695 99.7577 28.541C100.671 29.8657 102.456 30.3597 104.039 29.7259C104.937 29.3664 105.603 28.6439 105.989 27.6093C106.188 27.075 106.263 26.6229 106.265 25.931C106.268 25.0583 106.149 24.4896 105.815 23.7837C105.209 22.5042 104.079 21.8054 102.634 21.8182C102.338 21.8208 102.005 21.8411 101.896 21.8633ZM67.4487 29.8166H68.7527L68.7571 26.8733C68.7608 24.4186 68.7711 23.9609 68.8188 24.1162C68.8748 24.2979 69.4026 25.7722 70.3518 28.3973C70.6109 29.114 70.8225 29.7265 70.822 29.7585C70.8213 29.8019 70.9623 29.8166 71.3793 29.8166H71.9374L72.0513 29.5025C72.5113 28.2339 72.665 27.798 72.7527 27.5132C72.8079 27.334 73.0406 26.6639 73.2699 26.0241C73.4992 25.3842 73.7553 24.6513 73.839 24.3954L73.9912 23.93L74.0144 29.8166H75.3177V21.9989H73.4509L73.3711 22.2199C73.3273 22.3415 73.0911 23.0482 72.8462 23.7904C72.6014 24.5327 72.2714 25.5273 72.1128 26.0008C71.9542 26.4743 71.757 27.0711 71.6746 27.3271C71.409 28.1519 71.4555 28.1462 71.1843 27.3867C71.0538 27.0212 70.8802 26.5127 70.7985 26.2568C70.7168 26.0008 70.5447 25.4983 70.4162 25.1399C70.2876 24.7816 70.0452 24.0801 69.8776 23.581C69.7099 23.082 69.5174 22.5218 69.4497 22.3362L69.3268 21.9989H67.4487V29.8166ZM106.983 22.9866C107.128 23.5311 107.319 24.2802 107.406 24.6513C107.494 25.0224 107.766 26.0885 108.011 27.0203C108.257 27.9521 108.458 28.7478 108.458 28.7886C108.458 28.8293 108.515 29.0721 108.586 29.328L108.713 29.7934L110.108 29.8189L110.233 29.3641C110.302 29.1139 110.384 28.7836 110.415 28.63C110.447 28.4765 110.673 27.597 110.918 26.6756C111.163 25.7542 111.422 24.7542 111.494 24.4534C111.565 24.1526 111.638 23.9327 111.655 23.9648C111.693 24.0363 112.357 26.5652 112.397 26.7919C112.427 26.9614 113.057 29.4005 113.139 29.6654L113.186 29.8166H114.524L114.576 29.6189C114.604 29.5101 114.778 28.8766 114.962 28.2112C115.146 27.5458 115.316 26.9071 115.341 26.7919C115.365 26.6767 115.594 25.8077 115.85 24.8607C116.352 23.0079 116.596 22.0788 116.596 22.0297C116.596 22.0127 116.296 21.9989 115.928 21.9989H115.261L114.85 23.6654C114.624 24.5819 114.419 25.4412 114.394 25.5748C114.346 25.8386 113.909 27.6393 113.859 27.7766C113.831 27.8553 113.708 27.3956 113.202 25.3261C113.115 24.9678 112.952 24.3291 112.841 23.9068C112.73 23.4845 112.576 22.8825 112.499 22.5689L112.358 21.9989H110.996L110.713 23.0808C109.543 27.5661 109.401 28.0642 109.402 27.6617C109.402 27.6056 109.178 26.6069 108.904 25.4424C108.63 24.2779 108.339 23.0319 108.257 22.6736L108.109 22.0221L106.718 21.9966L106.983 22.9866ZM79.6344 23.0238C79.2684 23.1028 78.8074 23.3741 78.5566 23.6582C78.0668 24.2127 77.8326 24.925 77.832 25.8612C77.8316 26.5557 77.9145 27.0136 78.1224 27.4667C78.5345 28.3645 79.1651 28.7898 80.0871 28.7919C80.5743 28.793 80.8693 28.7192 81.2214 28.5081C81.7769 28.1751 82.2098 27.3991 82.3352 26.5118C82.4007 26.0483 82.3661 25.2592 82.2631 24.8658C82.0365 24.0002 81.5352 23.3769 80.8532 23.1128C80.5643 23.0009 79.9487 22.9559 79.6344 23.0238ZM102.101 23.0468C101.264 23.2662 100.653 23.9761 100.468 24.9434C100.372 25.4414 100.373 26.3689 100.469 26.8578C100.653 27.79 101.168 28.4365 101.937 28.7014C102.333 28.8376 103.085 28.8161 103.479 28.6573C104.197 28.3677 104.669 27.6604 104.848 26.6058C105.021 25.5889 104.754 24.2725 104.263 23.7179C104.063 23.4918 103.626 23.1938 103.354 23.0973C103.038 22.9854 102.428 22.9609 102.101 23.0468Z" fill="white"/>
<path d="M173.567 0.511878L180.917 9.88982H181.27V0.511878H184V13.4019H180.428L173.098 4.02395H172.746V13.4019H170.016V0.511878H173.567Z" fill="white"/>
</svg>
