<svg width="226" height="17" viewBox="0 0 226 17" stroke="none" xmlns="http://www.w3.org/2000/svg">
<path fill-rule="evenodd" clip-rule="evenodd" d="M22.871 0.0456169C20.4805 0.318736 18.7278 1.23314 17.8754 2.65178C17.4157 3.41703 17.1653 4.64185 17.2841 5.54452C17.4289 6.64471 17.7724 7.34864 18.5011 8.03895C19.0683 8.5762 19.4435 8.7942 20.2417 9.05046C21.2505 9.37434 21.5963 9.43157 24.3386 9.7291C26.4712 9.96039 27.7005 10.1556 28.0246 10.3141C28.6343 10.6126 28.861 11.213 28.6276 11.9119C28.4997 12.2947 27.8847 12.9083 27.3813 13.1553C26.7179 13.4808 26.0533 13.6199 25.0069 13.6524C24.4343 13.6701 23.8803 13.6552 23.549 13.613C22.0358 13.4205 20.0769 12.7115 19.3168 12.0814L18.9993 11.8182L18.933 11.9747C18.8695 12.1246 18.3084 13.3605 17.9177 14.2107L17.7321 14.615L17.898 14.7018C17.9894 14.7496 18.5292 14.9782 19.0977 15.21C21.219 16.0748 22.4826 16.3234 24.7153 16.3153C25.9714 16.3108 27.0425 16.1967 27.8265 15.9841C28.8838 15.6974 29.9832 15.1781 30.5931 14.6772C31.189 14.188 31.8386 13.127 32.0663 12.2708C32.2123 11.7221 32.2008 10.6963 32.0423 10.1286C31.5603 8.40237 30.2557 7.2875 28.1119 6.7699C27.5286 6.62913 27.321 6.60177 24.7153 6.32239C22.6293 6.09875 21.8138 5.97042 21.3537 5.79341C20.2927 5.38504 20.2245 4.2394 21.2141 3.44847C21.6316 3.11476 21.859 3.01263 22.4651 2.88648C24.7046 2.42043 27.332 2.83958 28.9173 3.91575C29.2724 4.15676 29.3046 4.16815 29.3731 4.07674C29.4136 4.02263 29.641 3.58891 29.8782 3.11286C30.1155 2.63682 30.3984 2.08935 30.5069 1.89625C30.704 1.54529 30.704 1.54512 30.5816 1.49805C30.5143 1.47219 30.1858 1.33845 29.8517 1.20086C28.8861 0.803326 28.0305 0.52976 26.9467 0.272165C25.9972 0.0464546 23.8892 -0.0707003 22.871 0.0456169ZM103.031 0.0436067C102.239 0.124409 101.548 0.253681 100.629 0.492626C99.103 0.88921 97.7605 1.65044 96.7031 2.7184C95.8568 3.57316 95.3652 4.33243 94.9158 5.47874C94.3292 6.97534 94.2974 8.93431 94.8336 10.5629C95.5065 12.6068 96.8103 14.0924 98.8698 15.1618C100.502 16.0093 101.981 16.3123 104.495 16.3142C106.882 16.316 107.871 16.1245 109.808 15.2856C110.501 14.9851 112.006 14.2026 112.006 14.1424C112.006 14.1107 111.893 13.9468 111.756 13.7781C111.619 13.6094 111.439 13.3709 111.356 13.2482C111.036 12.7741 110.503 12.0475 110.475 12.0475C110.459 12.0475 110.301 12.1368 110.123 12.2459C109.305 12.7483 107.965 13.2699 106.897 13.5012C106.108 13.6722 104.38 13.7163 103.513 13.5876C102.678 13.4635 102.038 13.2719 101.374 12.9469C100.653 12.594 100.28 12.3333 99.7647 11.8233C99.0938 11.1587 98.6043 10.3072 98.3851 9.42292C98.2277 8.78789 98.2394 7.43028 98.4073 6.83809C98.8999 5.1012 100.116 3.8278 101.948 3.13045C102.765 2.81953 104.55 2.6228 105.666 2.72075C107.29 2.86336 108.265 3.13654 109.587 3.82015C110.059 4.06451 110.43 4.22466 110.456 4.19596C110.482 4.16843 110.828 3.68574 111.226 3.12325L111.95 2.10063L110.832 1.55126C109.542 0.917522 109.236 0.787076 108.486 0.551482C107.232 0.157523 106.448 0.043495 104.798 0.0149043C104.1 0.00278673 103.304 0.0157419 103.031 0.0436067ZM170.494 0.0451702C168.067 0.317173 166.477 1.14496 165.513 2.63821C164.344 4.45048 164.7 6.94078 166.316 8.25751C166.75 8.61116 167.184 8.83642 167.866 9.06224C168.775 9.36328 169.255 9.43632 173.007 9.84435C173.99 9.95129 175.087 10.1304 175.419 10.2385C175.767 10.3516 176.151 10.7026 176.269 11.0154C176.504 11.6377 176.121 12.4328 175.339 12.9455C174.066 13.781 171.772 13.909 169.534 13.2694C168.383 12.9406 167.504 12.5409 166.968 12.1025C166.775 11.9449 166.61 11.8241 166.6 11.8341C166.59 11.844 166.433 12.1913 166.252 12.6059C166.07 13.0205 165.794 13.6333 165.639 13.9678C165.485 14.3022 165.358 14.5929 165.358 14.6136C165.358 14.6344 165.501 14.7099 165.675 14.7812C165.85 14.8526 166.304 15.0431 166.683 15.2044C168.628 16.0308 170.019 16.3107 172.206 16.3163C174.081 16.321 175.201 16.1387 176.538 15.6113C178.002 15.0337 179.109 13.9606 179.493 12.7466C179.914 11.4187 179.823 10.2551 179.205 9.07012C178.66 8.02622 177.413 7.19385 175.763 6.77364C175.348 6.66816 174.158 6.51074 172.372 6.32518C169.955 6.07401 169.263 5.95585 168.789 5.71288C168.14 5.38046 167.953 4.72321 168.307 4.0171C168.743 3.14771 169.961 2.70863 171.93 2.71097C173.776 2.71321 175.154 3.07204 176.506 3.9024C176.699 4.02101 176.878 4.118 176.904 4.118C176.93 4.118 177.085 3.86046 177.249 3.54563C177.413 3.2308 177.714 2.65117 177.92 2.25754C178.125 1.86386 178.284 1.53557 178.273 1.52798C178.233 1.49905 176.637 0.876143 176.321 0.765689C175.758 0.56924 174.362 0.222075 173.753 0.126922C173.059 0.018534 171.158 -0.0291544 170.494 0.0451702ZM196.065 0.0195391C194.829 0.130105 193.273 0.458507 192.387 0.795453C191.912 0.976434 191.23 1.35141 190.595 1.78038C189.446 2.55747 188.329 3.9698 187.854 5.24521C187.116 7.22953 187.102 9.01087 187.811 10.9381C188.06 11.6138 188.34 12.1563 188.657 12.5779C189.202 13.3014 189.391 13.5211 189.714 13.8086C189.912 13.9843 190.151 14.198 190.246 14.2837C190.745 14.7331 191.558 15.1956 192.543 15.5907C193.868 16.1222 195.019 16.309 197.004 16.3153C199.474 16.3232 200.928 16.025 202.61 15.1656C203.232 14.8476 203.338 14.7784 203.88 14.3324C205.471 13.0255 206.504 11.2844 206.811 9.39489C206.922 8.71061 206.894 7.33435 206.754 6.65878C206.418 5.03045 205.721 3.76023 204.526 2.60085C203.114 1.23062 201.464 0.479615 199.076 0.120556C198.541 0.040312 196.572 -0.025804 196.065 0.0195391ZM0 16.1243L15.1606 16.0959L15.1902 13.4998L3.17571 13.4714V9.17163L11.4326 9.14299V6.63158L3.17571 6.60294L3.1466 2.8895H13.8374L14.4852 1.61129C14.8414 0.908252 15.1329 0.317731 15.1329 0.299024C15.1329 0.280262 11.728 0.264961 7.56647 0.264961H0V16.1243ZM32.4862 0.306842C32.9875 1.33957 33.6969 2.74677 33.747 2.8078C33.8042 2.87738 34.2014 2.8895 36.4307 2.8895H39.0474V16.1254L42.7754 16.0959L42.8035 2.89056L48.0586 2.86158L48.6883 1.63307C49.0346 0.957392 49.3184 0.373181 49.319 0.334763C49.3199 0.279201 47.5985 0.264961 40.893 0.264961C36.2581 0.264961 32.475 0.283836 32.4862 0.306842ZM51.7226 16.0959L67.3803 16.1243V13.4998L55.423 13.4714V9.17163L63.6799 9.14299V6.63158L55.423 6.60294L55.3939 2.89006L66.0824 2.86158L66.7068 1.63307C67.0502 0.957392 67.3449 0.373181 67.3616 0.334763C67.3859 0.279089 65.8017 0.264961 59.5434 0.264961H51.6946L51.7226 16.0959ZM69.3777 0.307345C69.3879 0.330686 69.6753 0.921207 70.0165 1.61961L70.6369 2.8895H75.9409V16.1239H79.6413V2.8895H84.9427L85.5782 1.60096C85.9277 0.892225 86.2136 0.301705 86.2136 0.288694C86.2136 0.275627 82.4214 0.264961 77.7865 0.264961C73.1515 0.264961 69.3676 0.284059 69.3777 0.307345ZM88.5056 16.0959L91.6813 16.1256V0.264961H88.4776L88.5056 16.0959ZM120.742 0.446445C120.682 0.546289 120.41 1.06768 120.138 1.60515C119.866 2.14262 119.416 3.0157 119.139 3.54535C118.861 4.07501 118.633 4.52838 118.633 4.55284C118.633 4.5773 118.513 4.80988 118.366 5.06965C118.218 5.32942 117.849 6.03196 117.544 6.63086C117.239 7.22976 116.685 8.31028 116.313 9.03203C115.019 11.5384 114.45 12.6412 113.763 13.974C113.383 14.7111 112.981 15.4796 112.87 15.6818C112.759 15.884 112.685 16.0662 112.705 16.0866C112.726 16.1071 113.529 16.1239 114.491 16.1239H116.24L116.802 15.0446C117.11 14.4509 117.363 13.946 117.363 13.9225C117.363 13.899 117.581 13.4678 117.846 12.9641L118.33 12.0484L126.062 12.0477L126.461 12.7876C126.68 13.1946 127.005 13.8165 127.183 14.1696C127.361 14.5227 127.662 15.1069 127.851 15.4677L128.196 16.1239H130.263C131.4 16.1239 132.33 16.1171 132.33 16.1088C132.33 16.0794 131.434 14.3553 131.089 13.7227C130.757 13.111 129.863 11.4368 129.391 10.5397C128.987 9.77271 128.342 8.56436 128.02 7.97105C127.845 7.64856 127.492 6.98266 127.235 6.49126C126.978 5.99985 126.576 5.246 126.342 4.81602C126.107 4.38604 125.883 3.95584 125.843 3.85996C125.803 3.76414 125.621 3.4249 125.44 3.10611C125.259 2.78736 124.956 2.22499 124.766 1.85644C124.577 1.48788 124.306 0.979114 124.165 0.725819L123.908 0.265352L120.852 0.264961L120.742 0.446445ZM140.283 3.79692C141.251 5.73952 142.641 8.52248 143.371 9.98133C144.102 11.4402 145.09 13.4195 145.567 14.3797L146.434 16.1256L149.414 16.0959L150.543 13.8344C151.895 11.1227 153.916 7.08116 155.865 3.19126C156.651 1.62201 157.294 0.321584 157.294 0.301481C157.294 0.281379 156.443 0.265073 155.403 0.265185L153.511 0.265408L152.476 2.37319C151.908 3.53245 150.862 5.67458 150.154 7.13343C149.445 8.59228 148.677 10.1626 148.447 10.6229L148.029 11.4601L146.075 7.46792C145 5.2723 143.773 2.75436 143.348 1.87257L142.576 0.269317L138.524 0.264961L140.283 3.79692ZM159.034 16.0959H162.182L162.21 0.264961H159.006L159.034 16.0959ZM181.871 16.1256L185.047 16.0959L185.075 0.264961H181.871V16.1256ZM196.342 2.72404C195.745 2.78306 194.897 2.96215 194.544 3.1037C193.814 3.39654 193.039 3.94127 192.445 4.57964C191.93 5.13186 191.697 5.50728 191.446 6.18139C190.986 7.42023 190.979 8.76276 191.425 10.1175C191.65 10.7994 191.924 11.2223 192.578 11.8965C193.366 12.7073 194.156 13.1634 195.33 13.4848C195.84 13.6242 195.945 13.6331 197.087 13.6331C198.224 13.6331 198.336 13.6237 198.834 13.4873C200.065 13.1502 200.708 12.7742 201.594 11.8752C202.161 11.2996 202.263 11.1647 202.488 10.7008C202.627 10.4126 202.81 9.95062 202.893 9.6742C203.033 9.21268 203.046 9.09413 203.049 8.22233C203.052 7.13806 202.986 6.77331 202.631 5.93525C202.369 5.31535 202.108 4.92323 201.641 4.44853C201.024 3.82065 199.948 3.17138 199.21 2.98052C198.322 2.75084 197.139 2.64514 196.342 2.72404ZM122.193 4.34528C122.166 4.38923 121.54 5.64387 120.801 7.13343L119.458 9.84173L120.841 9.85664C121.601 9.86485 122.844 9.86485 123.603 9.85664L124.983 9.84173L123.613 7.05358C122.634 5.06222 122.228 4.28826 122.193 4.34528Z"/>
<path d="M213.185 0.614253L222.214 11.8678H222.647V0.614253H226V16.0823H221.612L212.61 4.82874H212.177V16.0823H208.824V0.614253H213.185Z"/>
</svg>
